<svg version="1.2" xmlns="http://www.w3.org/2000/svg" viewBox="0 0 836 836" width="836" height="836"><style>.a{fill:#181a1e}.b{fill:#262626}.c{fill:#e0c54c}.d{fill:#fdf15a}.e{fill:#efd852}.f{fill:#dabe4a}.g{fill:#fef95d}.h{fill:#bc9c3e}.i{fill:#cbac44}.j{fill:#fffe5f}.k{fill:#c1a040}.l{fill:#e9d050}.m{fill:#ac8a38}.n{fill:#f5e055}.o{fill:#9c7732}.p{fill:#7d5127}.q{fill:#b4933b}.r{fill:#714322}.s{fill:#8c632c}.t{fill:#fceb58}</style><path class="a" d="m0 418v418h836v-836h-836z"/><path class="b" d="m396.5 18.6c-2.2 0.2-9.6 0.9-16.5 1.5-6.9 0.5-19.3 2.2-27.5 3.6-8.3 1.4-21.3 4.1-29 5.9-7.7 1.9-21.9 6.1-31.5 9.3-9.6 3.3-23.4 8.4-30.5 11.6-7.2 3.1-18.9 8.7-26 12.4-7.2 3.7-18 9.8-24 13.6-6.1 3.7-15.5 9.9-21 13.8-5.5 3.9-13.2 9.6-17 12.6-3.9 3.1-10.2 8.3-14 11.6-3.9 3.3-10.8 9.6-15.4 14-4.6 4.4-12.5 12.5-17.5 18-5 5.6-12.5 14.3-16.7 19.5-4.1 5.2-10.7 14-14.6 19.5-3.9 5.5-10.1 14.9-13.8 21-3.8 6-9.9 16.8-13.6 24-3.7 7.1-9.3 18.8-12.4 26-3.2 7.1-8.3 20.9-11.6 30.5-3.2 9.6-7.4 24-9.4 32-1.9 8-4.6 21.2-6 29.5-1.4 8.2-3 20.2-3.7 26.5-0.7 6.3-1.2 23.4-1.2 38 0 14.6 0.5 31.7 1.2 38 0.7 6.3 2.3 18.2 3.7 26.5 1.4 8.2 4.1 21.5 6 29.5 2 8 6.2 22.4 9.4 32 3.3 9.6 8.4 23.3 11.6 30.5 3.1 7.1 8.7 18.8 12.4 26 3.7 7.1 9.8 17.9 13.6 24 3.7 6 9.9 15.5 13.8 21 3.9 5.5 10.5 14.3 14.6 19.5 4.2 5.2 11.7 13.9 16.7 19.5 5 5.5 12.9 13.6 17.5 18 4.6 4.4 11.5 10.7 15.4 14 3.8 3.3 10.1 8.5 14 11.6 3.8 3 11.5 8.7 17 12.6 5.5 3.9 14.9 10.1 21 13.8 6 3.8 16.8 9.9 24 13.6 7.1 3.7 18.8 9.3 26 12.4 7.1 3.2 20.9 8.3 30.5 11.6 9.6 3.2 24 7.4 32 9.4 8 1.9 21.2 4.6 29.5 6 8.2 1.4 20.2 3 26.5 3.7 6.3 0.7 23.4 1.2 38 1.2 14.6 0 31.7-0.5 38-1.2 6.3-0.7 18.2-2.3 26.5-3.7 8.2-1.4 21.5-4.1 29.5-6 8-2 22.4-6.2 32-9.4 9.6-3.3 23.3-8.4 30.5-11.6 7.1-3.1 18.8-8.7 26-12.4 7.1-3.7 17.9-9.8 24-13.6 6-3.7 15.5-9.9 21-13.8 5.5-3.9 13.1-9.6 17-12.6 3.8-3.1 10.1-8.3 14-11.6 3.8-3.3 10.8-9.6 15.4-14 4.6-4.4 12.5-12.5 17.5-18 5-5.6 12.5-14.3 16.7-19.5 4.1-5.2 10.7-14 14.6-19.5 3.9-5.5 10.1-15 13.8-21 3.8-6.1 9.9-16.9 13.6-24 3.7-7.2 9.3-18.9 12.4-26 3.2-7.2 8.3-20.9 11.6-30.5 3.2-9.6 7.4-24 9.4-32 1.9-8 4.6-21.3 6-29.5 1.4-8.3 3-20.2 3.7-26.5 0.7-6.3 1.2-23.4 1.2-38 0-14.6-0.5-31.7-1.2-38-0.7-6.3-2.3-18.3-3.7-26.5-1.4-8.3-4.1-21.5-6-29.5-2-8-6.2-22.4-9.4-32-3.3-9.6-8.4-23.4-11.6-30.5-3.1-7.2-8.7-18.9-12.4-26-3.7-7.2-9.8-18-13.6-24-3.7-6.1-9.9-15.5-13.8-21-3.9-5.5-10.5-14.3-14.6-19.5-4.2-5.2-11.7-13.9-16.7-19.5-5-5.5-12.9-13.6-17.5-18-4.6-4.4-11.6-10.7-15.4-14-3.9-3.3-10.2-8.5-14-11.6-3.9-3-11.5-8.7-17-12.6-5.5-3.9-15-10.1-21-13.8-6.1-3.8-16.9-9.9-24-13.6-7.2-3.7-18.9-9.3-26-12.4-7.2-3.2-20.9-8.3-30.5-11.6-9.6-3.2-24-7.4-32-9.4-8-1.9-21.3-4.6-29.5-6-8.3-1.3-19.5-2.9-25-3.5-5.5-0.6-20.6-1.2-33.5-1.4-12.9-0.2-25.3-0.2-27.5 0z"/><path class="c" d="m369 106.7c-2.5 0.8-6.5 2.9-8.8 4.7-2.4 1.7-5.7 5.1-7.3 7.6-1.7 2.5-3.9 7.6-5 11.5-2 6.7-2 7.2-0.4 13 0.9 3.3 2.7 7.8 4 10 1.2 2.2 4.1 5.7 6.4 7.7 2.2 2.1 6.2 4.8 8.8 6 3.7 1.6 6.7 2.1 12.8 2.1 6.1 0 9.1-0.5 12.7-2.1 2.7-1.2 6.7-3.9 8.9-6 2.3-2 5.2-5.5 6.4-7.7 1.3-2.2 3.1-6.7 4-10 1.6-5.8 1.6-6.3-0.4-13-1.1-3.9-3.5-9.2-5.3-11.9-1.8-2.7-5.1-6.1-7.3-7.6-2.2-1.5-6.1-3.5-8.8-4.4-2.6-0.9-7.3-1.6-10.5-1.6-3.1 0.1-7.7 0.8-10.2 1.7zm93 4.5c-3.5 1.3-7.4 4-10.6 7.2-3.5 3.5-5.8 7-7.3 11.1-1.9 4.9-2.2 7.4-1.9 13.5 0.4 5.5 1.2 8.9 3.1 12.7 1.5 2.9 4.4 6.9 6.4 8.9 2.1 2 6.3 4.8 9.3 6.2 4.3 2.1 7.1 2.6 13 2.7 6 0 8.6-0.5 13-2.6 3-1.4 7.2-4.1 9.3-6 2.2-1.9 5.3-6.3 7-9.9 2.8-5.5 3.2-7.5 3.2-14-0.1-5.2-0.7-8.8-2.1-12-1.1-2.5-4-6.7-6.5-9.4-2.4-2.6-6.7-6-9.4-7.4-3.8-1.9-6.9-2.6-13-2.9-6.4-0.2-9.1 0.1-13.5 1.9zm-133.5 52.9c-2.8 1-6.7 3.2-8.8 4.7-2.1 1.5-4.9 4.4-6.3 6.4-1.3 2.1-2.5 4.4-2.7 5-0.1 0.7-0.5 1.5-0.9 1.8-0.4 0.3-1 1.8-1.2 3.5-0.2 1.6-0.9 4.2-1.5 5.7-0.8 2.2-0.7 4.2 0.5 9 0.9 3.5 2.1 7.3 2.8 8.6 0.6 1.2 1.5 2.2 2 2.2 0.5 0 0.7 0.3 0.3 0.7-0.3 0.5 0.6 2.3 2.1 4.1 1.5 1.8 3 3.3 3.4 3.2 0.5 0 2 1.1 3.5 2.5 1.6 1.4 4.8 3.2 7.3 4 2.8 0.9 7.5 1.4 12.5 1.2 6.3-0.3 9.1-0.9 13.2-3 2.9-1.5 6.9-4.4 8.9-6.5 1.9-2 4.4-5.5 5.5-7.7 1-2.2 2.2-5.6 2.6-7.5 0.3-1.9 0.6-6.2 0.5-9.5-0.1-4.4-0.9-7.6-3.1-12-1.6-3.3-4.9-7.9-7.5-10.3-2.5-2.3-5.1-4-5.6-3.7-0.6 0.3-1 0-1-0.5 0-0.6-2.4-1.6-5.3-2.4-2.8-0.8-7.7-1.5-10.7-1.5-3.2 0-7.6 0.8-10.5 2zm181 2.6c-1.1 0.2-2.7 0.7-3.5 1-0.8 0.3-1.8 0.5-2.3 0.5-0.4-0.1-2.6 0.7-5 1.8-2.3 1.1-6.2 3.6-8.6 5.7-2.6 2.3-5.5 6.3-7.4 10.3-2.6 5.4-3.2 7.7-3.2 13.5 0 4.1 0.8 9 1.8 11.7 0.9 2.7 2.1 4.8 2.7 4.8 0.5 0 0.8 0.4 0.5 1-0.3 0.5 0.1 1.3 0.7 1.7 0.7 0.5 1.8 1.7 2.4 2.8 0.6 1.1 3.3 3.5 6 5.3 2.7 1.8 7.9 4.2 11.6 5.3 6.7 1.9 6.9 1.9 14-0.1 4-1.1 7.6-2.5 8-3.2 0.4-0.7 0.8-0.9 0.7-0.3 0 0.5 1.7-0.3 3.8-1.9 2.1-1.6 4.6-3.9 5.6-5 1-1.2 2.6-3.7 3.7-5.6 1.1-1.9 1.6-3.9 1.2-4.3-0.4-0.4-0.1-0.7 0.5-0.7 0.7 0 1.2-0.6 1.1-1.3 0-0.6 0.3-2.1 0.7-3.2 0.4-1.1 0.6-5.2 0.3-9-0.3-4.8-1.3-8.6-3.1-12-1.4-2.8-4.6-7-7.1-9.5-2.6-2.5-4.6-4.2-4.6-3.8 0 0.5-0.7 0.1-1.5-0.7-0.8-0.8-3.9-2.2-6.8-3-2.8-0.8-6.3-1.6-7.7-1.9-1.4-0.2-3.4-0.2-4.5 0.1zm-335.6 149.7c-0.2 0.3-2.2 0.8-4.5 1.1-2.2 0.3-4.5 0.9-5 1.3-0.5 0.4-1.6 0.8-2.4 1-0.8 0.2-1.6 0.8-1.8 1.3-0.1 0.5-0.7 0.7-1.2 0.4-0.6-0.3-3.2 1.6-5.8 4.2-2.6 2.7-5.9 7-7.2 9.8-2.1 4.2-2.5 6.5-2.5 14 0 7.2 0.4 9.9 2.2 13.5 1.2 2.5 3.8 6.4 5.8 8.7 1.9 2.4 3.9 4.1 4.5 3.8 0.5-0.3 1.2 0.3 1.5 1.2 0.3 1 0.7 1.5 1 1 0.3-0.4 1.2 0 2 0.8 0.8 0.8 3.4 2 5.7 2.6 2.4 0.6 6.8 1.1 9.8 1.1 3 0 7.7-0.7 10.5-1.5 2.7-0.9 6.2-2.8 7.7-4.2 1.6-1.4 3.1-2.5 3.5-2.5 0.5 0 2-1.5 3.4-3.3 1.4-1.7 3.3-4.6 4.1-6.2 0.9-1.7 2.3-5.7 3.2-9 1.2-4.6 1.3-6.9 0.5-10-0.5-2.2-1.6-5.9-2.4-8.3-0.8-2.3-2-4.2-2.5-4.2-0.6 0-0.9-0.3-0.8-0.8 0.1-0.4-0.5-1.8-1.4-3.2-0.9-1.4-3.6-3.9-6-5.7-2.4-1.7-6.1-3.8-8.3-4.6-2.2-0.8-6.1-1.7-8.6-2.1-2.5-0.4-4.7-0.4-5-0.2zm482.1 127.9c-1.9 0.7-5.8 2.7-8.5 4.4-3.6 2.3-6.1 4.9-8.7 9.5-2.1 3.5-4.1 8.3-4.4 10.8-0.4 2.5-0.4 7-0.2 10 0.3 3 1.7 7.9 3.2 10.7 1.4 2.9 4.3 6.9 6.3 8.9 2.1 1.9 5.6 4.4 7.8 5.5 2.2 1 6.5 2.3 9.5 2.7 3 0.5 7.7 0.5 10.5 0 2.7-0.4 6.8-1.7 9-2.7 2.2-1.1 5.9-3.9 8.3-6.3 2.4-2.4 5.2-6.1 6.2-8.3 1.1-2.2 2.4-6.3 2.9-9 0.5-2.8 0.6-7.2 0.1-10-0.4-2.8-1.5-6.7-2.4-8.8-0.9-2-3.5-5.8-5.9-8.3-2.3-2.6-6.5-5.8-9.2-7.2-3.8-1.9-6.9-2.6-13-2.9-4.9-0.2-9.4 0.2-11.5 1zm-150 155.2c-2.5 0.8-6.7 3.2-9.4 5.2q-4.9 3.8-8.5 10.3c-2.9 5.4-3.5 7.7-3.8 13.7q-0.3 7.3 1.3 12c0.9 2.7 2.9 6.6 4.4 8.8 1.5 2.2 4.7 5.4 7.1 7.2 2.4 1.8 4.7 3 5.1 2.8 0.5-0.3 0.8-0.2 0.8 0.2 0 0.5 2.1 1.4 4.7 2.2 3.1 0.9 7.4 1.2 11.8 0.9 5.2-0.3 8.4-1.2 12.4-3.4 3-1.6 6.8-4.3 8.4-5.9 1.6-1.7 4.2-5.7 5.8-9 2.1-4.3 2.9-7.5 2.9-11.5 0.1-3-0.1-7.1-0.3-9-0.2-1.9-1.7-5.9-3.3-8.9-1.6-3-4.3-6.8-5.9-8.4-1.7-1.6-5.5-4.1-8.5-5.5-4.2-2.1-7.3-2.7-13-2.9-4.5-0.2-9.3 0.3-12 1.2zm-182 4.4c-1.4 0.4-4.4 1.8-6.5 3-2.2 1.2-4.1 2.6-4.3 3.1-0.1 0.6-1.2 1.2-2.4 1.4-1.3 0.3-2.4 1.3-2.5 2.5-0.2 1.2-0.8 2.1-1.3 2.1-0.6 0-2 1.9-3.2 4.2-1.2 2.4-2.7 6.8-3.4 9.8-1 4.1-1 6.7-0.2 10.5 0.6 2.7 2.1 7.1 3.4 9.7 1.3 2.7 2.8 4.8 3.4 4.8 0.5 0 1 0.7 1 1.5 0 0.8 2.1 3 4.7 4.9 2.7 1.9 7 4.2 9.8 5.1 3.5 1.2 7.1 1.5 12 1.2 4.1-0.3 9-1.3 11.7-2.6 2.7-1.1 4.8-2.6 4.8-3.1 0-0.6 0.4-0.8 1-0.5 0.5 0.3 2.8-1.5 5-4 2.2-2.5 3.8-5 3.5-5.5-0.3-0.6-0.1-1 0.5-1 0.5 0 1.6-2.1 2.4-4.8 0.8-2.6 1.5-7.4 1.5-10.7 0-3.3-0.7-8.1-1.5-10.8-0.8-2.6-1.9-4.7-2.4-4.7-0.6 0-0.8-0.3-0.5-0.8 0.2-0.4-1.1-2.6-3-5-1.9-2.3-4.2-4.2-5-4.2-0.8 0-1.5-0.5-1.5-1 0-0.6-2.1-2-4.8-3.1-3.1-1.5-7.3-2.3-12.2-2.5-4.1-0.2-8.6 0-10 0.5zm140.2 49.6c-2.8 0.8-6.9 2.6-9 3.8-2 1.3-5.2 4-7 6-1.7 2.1-3.8 4.9-4.6 6.4-0.7 1.6-2.1 5.4-3 8.5-0.9 3.2-1.6 6.5-1.6 7.3 0 0.8 0.5 2.7 1.2 4.2 0.6 1.6 1.1 3.1 1 3.5-0.1 0.5 0.7 2.7 1.8 5 1.1 2.4 3.5 6.1 5.3 8.3 1.9 2.2 5.6 5.2 8.3 6.7 2.7 1.5 7.4 3.2 10.4 3.8 3.8 0.7 7.2 0.7 11 0 3-0.6 7.3-1.9 9.5-3 2.2-1 5.7-3.5 7.7-5.4 2.1-2 5-6 6.5-8.9 2.5-4.6 2.8-6.3 2.8-14.7 0-8.3-0.3-10.1-2.6-14.5-1.5-2.8-4.9-7-7.5-9.4-2.7-2.5-6.7-5.3-8.9-6.3-2.2-0.9-6.7-2-10-2.3-3.8-0.3-7.9 0.1-11.3 1zm-95.8 3.3c-2.8 0.9-6.9 3.1-9 4.8-2.2 1.7-5.4 5.1-7.2 7.7-1.7 2.6-3 5.1-2.7 5.7 0.3 0.5-0.1 1.1-0.8 1.3-0.9 0.3-1.2 3.4-1.2 11.2 0 7.8 0.3 10.9 1.2 11.2 0.7 0.1 1.1 0.7 0.8 1.3-0.3 0.5 1 3.1 2.7 5.7 1.8 2.6 5.3 6.2 7.8 8.1 2.5 1.8 7 4.1 10 4.9 3.6 1 7.8 1.4 12 1.1 4.2-0.3 8.3-1.4 11.5-3 2.7-1.4 6.9-4.6 9.2-7.2 2.4-2.5 4.9-5.8 5.7-7.4 0.8-1.5 2.1-5.4 3-8.7 1.4-5.4 1.4-6.6 0-12-0.9-3.3-2.4-7.6-3.4-9.5-1-1.9-3.8-5.4-6.2-7.6-2.4-2.3-6.2-5.1-8.6-6.3-2.3-1.2-4.7-1.9-5.2-1.6-0.6 0.3-1.2 0-1.5-0.5-0.3-0.6-3.3-1-6.8-1-3.4 0.1-8.5 0.9-11.3 1.8z"/><path class="d" d="m330 68.3c-2.6 0.7-6.3 2.4-8.3 3.9-2 1.6-4.8 4.5-6.2 6.5-1.3 2.1-2.9 6-3.5 8.8-0.7 3.5-0.8 6.5-0.1 10 0.6 2.7 2.4 6.9 4.1 9.2 1.6 2.4 4.7 5.4 6.7 6.8 2.1 1.3 6 2.9 8.8 3.5 3.5 0.7 6.5 0.8 10 0.1 2.7-0.6 6.9-2.4 9.2-4.1 2.4-1.6 5.4-4.7 6.8-6.8 1.3-2 2.9-6 3.5-8.7 0.7-3.5 0.8-6.5 0.1-10-0.6-2.8-2.4-6.9-4.1-9.3-1.6-2.3-4.7-5.3-6.8-6.7-2-1.3-5.7-2.9-8.2-3.4-2.5-0.6-5.2-1-6-1-0.8 0-3.5 0.6-6 1.2zm184 5.8c-2.5 0.5-6.3 2.1-8.4 3.6-2.2 1.6-5.3 4.6-6.8 6.8-1.5 2.2-3.3 6.5-4 9.5-0.9 4.6-0.8 6.5 0.6 11.2 1 3.8 2.9 7.3 5.3 9.9 2.1 2.3 5.6 5.1 7.8 6.2 3 1.6 5.8 2.1 11 2.1 5.2 0 8-0.5 11-2.1 2.2-1.1 5.7-3.9 7.7-6.2 2.5-2.7 4.3-6.1 5.4-9.9 1-3.7 1.3-7.1 0.9-9.7-0.4-2.2-1.3-5.4-1.9-7-0.7-1.7-2.6-4.6-4.3-6.5-1.6-1.9-5-4.4-7.4-5.6-2.4-1.2-6.2-2.3-8.4-2.6-2.2-0.3-6-0.2-8.5 0.3zm-213 41.2c-2.5 0.7-6.1 2.4-8 3.7-1.9 1.4-4.7 4.3-6.2 6.5-1.6 2.2-3.3 6.2-3.9 9-0.7 2.7-0.9 6.9-0.5 9.2 0.3 2.4 1.3 5.8 2.2 7.5 0.9 1.8 3 4.8 4.8 6.6 1.7 1.9 4.9 4.3 7.1 5.5 3.1 1.7 5.8 2.2 11.5 2.2 5.4 0 8.5-0.6 11-1.9 1.9-1 5.2-3.5 7.3-5.5 2.1-2 4.6-5.9 5.7-8.9 1.1-2.8 2-6.7 2-8.5 0-1.7-0.6-5.5-1.4-8.2-0.9-2.8-3-6.8-4.9-9-1.8-2.2-5.3-5-7.8-6.2-2.4-1.2-6.7-2.4-9.4-2.7-2.8-0.3-7 0-9.5 0.7zm242.5 542.6c-2.2 1-5.5 3.3-7.4 5.2-1.8 1.9-4.3 5.2-5.4 7.4-1.5 2.9-2.1 5.9-2.1 11 0 5.1 0.6 8.1 2.1 11 1.1 2.2 3.6 5.5 5.4 7.4 1.9 1.9 5.2 4.2 7.4 5.2 2.5 1.2 6.4 1.9 10.5 1.9 5.2 0 7.6-0.5 11.9-2.7 3.1-1.6 6.8-4.5 8.5-6.8 1.7-2.2 3.9-6.7 4.8-10 1.8-5.7 1.8-6.3 0.1-12-1-3.3-3.2-7.8-4.9-10-1.7-2.3-5.3-5.2-8.5-6.8-4.3-2.2-6.7-2.7-11.9-2.7-4.1 0-8 0.7-10.5 1.9zm-249 4.8c-1.1 0.2-3.6 0.9-5.5 1.5-1.9 0.7-5.5 3-7.9 5.2-2.4 2.3-5.2 5.9-6.2 8.1-1.2 2.6-1.9 6.3-1.9 10.5 0 4.1 0.7 8 1.9 10.5 1 2.2 3.3 5.5 5.2 7.4 1.9 1.9 5.4 4.3 7.9 5.4 2.9 1.3 6.7 2.1 10.5 2.1 4.8 0 7.1-0.6 11.5-3 3-1.6 6.8-4.7 8.5-6.9 1.9-2.4 3.7-6.3 4.5-10 1.1-5 1.1-6.9 0-11.5-0.8-3-2.8-7.3-4.5-9.5-1.7-2.2-5.3-5.2-8-6.6-2.8-1.5-7-2.9-9.5-3.2-2.5-0.3-5.4-0.3-6.5 0zm220 38.1c-1.7 0.5-5 2-7.5 3.4-2.5 1.4-5.7 4.3-7.2 6.4-1.5 2.2-3.2 5.1-3.7 6.6-0.6 1.6-1.1 5.4-1.1 8.5 0 4.4 0.7 7.2 2.7 11.2 1.6 3 4.4 6.7 6.3 8.3 1.9 1.6 5.7 3.5 8.5 4.3 2.7 0.9 6.3 1.5 8 1.5 1.6 0 5-0.7 7.5-1.5 2.5-0.8 6.3-3 8.4-4.7 2.2-1.8 5-5.6 6.3-8.3 1.5-3.4 2.3-6.9 2.3-10.8 0-3.1-0.7-7.4-1.6-9.5-0.8-2-2.6-5.1-3.8-6.7-1.3-1.7-4.5-4.2-7.2-5.7-2.7-1.5-7.2-2.9-9.9-3.2-2.8-0.3-6.4-0.2-8 0.2zm-189 5.8c-2.2 0.7-5.8 2.9-7.9 4.6-2.2 1.8-5 5.5-6.3 8.3-1.5 3.4-2.3 6.9-2.3 11-0.1 4.7 0.6 7.2 2.8 11.5 1.8 3.7 4.3 6.5 7.2 8.6 2.5 1.7 6.9 3.6 9.7 4.2 3.8 0.9 6.6 0.9 9.8 0.2 2.5-0.6 5.7-1.6 7.2-2.4 1.6-0.7 4.6-3.3 6.8-5.8 2.4-2.7 4.6-6.4 5.4-9.4 0.9-3.2 1.2-6.8 0.8-10.4-0.4-3-1.8-7.4-3.2-9.8-1.4-2.3-4-5.3-5.8-6.7-1.7-1.4-5.5-3.2-8.2-4-2.8-0.8-6.6-1.5-8.5-1.4-1.9 0-5.3 0.7-7.5 1.5z"/><path class="e" d="m264.5 160.3c-2.2 0.8-5.4 2.1-7 2.9-1.7 0.9-4.8 3.5-6.9 5.9-2.2 2.4-4.9 6.4-5.9 8.9-1.2 2.7-2 6.9-2 10.5-0.1 3.4 0.7 8.3 1.8 11.5 1.3 3.8 3.4 7 6.9 10.6 3.6 3.5 6.8 5.6 10.6 6.9 3.2 1.1 8.1 1.9 11.5 1.8 3.6 0 7.8-0.8 10.5-2 2.5-1 6.6-3.9 9.3-6.4 2.6-2.4 4.5-4.5 4.2-4.7-0.3-0.1 0.2-0.9 1-1.7 0.8-0.8 2.2-4.1 3.1-7.3 1.1-3.8 1.4-7.4 1-11-0.3-2.8-1.7-7.5-3.1-10.2-1.4-2.8-3-5-3.5-5-0.6 0-1-0.7-1-1.5 0-0.8-0.8-1.8-1.8-2.2-0.9-0.4-2.5-1.5-3.5-2.5-0.9-1-3.4-2.5-5.5-3.4-2-0.8-6.4-1.7-9.7-2-3.5-0.2-7.7 0.2-10 0.9zm-63 4.5c-3.4 0.9-8 3-10.4 4.7-2.3 1.6-5.3 4.6-6.6 6.5-1.3 1.9-3.1 5.3-4.1 7.5-1 2.5-1.6 6.7-1.5 11 0 5.3 0.6 8.2 2.5 12 1.3 2.7 3.9 6.5 5.8 8.3 1.8 1.9 5.5 4.5 8.3 5.8 3.7 1.9 6.8 2.5 12 2.6 6 0.2 8-0.3 13.7-3 5.1-2.4 7.7-4.4 10.4-8 1.9-2.6 4.4-7.6 5.5-11.2 1.7-5.6 1.8-7.2 0.8-11.5-0.6-2.8-2.1-6.8-3.1-9-1.1-2.2-3.4-5.5-5.2-7.3-1.7-1.9-4.9-4.3-7.1-5.4-2.2-1.2-6.3-2.7-9-3.4-2.8-0.8-5.2-1.3-5.5-1.3-0.3 0-3.2 0.8-6.5 1.7zm435.9 5.9c-2.7 1-6.8 3-9 4.5-2.1 1.5-5.5 5.3-7.4 8.5-2.8 4.8-3.5 7-3.8 12.8-0.4 5 0 8.6 1.3 12.5 1.3 3.9 3.3 7 6.9 10.6 3.4 3.3 6.8 5.6 10.1 6.7 2.7 1 7.9 1.7 11.5 1.7 4.7 0 7.9-0.7 11.5-2.3 2.8-1.3 7-4.6 9.5-7.3 3-3.4 5.1-7 6.4-10.9 1.4-4.4 1.7-7.5 1.3-11.5-0.4-3-1.8-7.9-3.2-10.8-1.4-3-4.3-6.6-6.8-8.6-2.3-1.9-5.9-4.2-8-5-2-0.9-6.3-1.8-9.5-2.1-4-0.4-7.2 0-10.8 1.2zm-478.4 82.7c-0.3 0.3-2.1 0.8-4 1.1-1.9 0.3-5.3 1.6-7.5 2.9-2.2 1.3-5.7 4.3-7.8 6.7-2 2.4-4.3 6.2-5.1 8.4-0.7 2.2-1.4 7.1-1.5 11-0.2 6 0.2 7.9 2.8 13 1.6 3.3 4.4 7.3 6.3 8.9 1.8 1.6 5.1 3.8 7.3 4.9 2.6 1.3 6.7 2.2 11.5 2.5 5.3 0.3 8.7-0.1 11.5-1.2 2.2-0.8 5.9-2.9 8.2-4.6 2.4-1.6 5.4-4.9 6.8-7.3 1.4-2.3 2.7-4.9 2.9-5.7 0.1-0.8 0.6-2.2 0.9-3 0.3-0.8 0.8-2.9 1-4.5 0.3-1.7 0.1-5.5-0.4-8.5-0.5-3-1.3-5.7-1.7-6-0.4-0.3-0.8-1.2-1-2-0.2-0.8-1.4-3-2.8-4.8-1.3-1.7-3.9-4.3-5.7-5.6-1.7-1.4-4.9-3.2-7-4-2-0.9-6.1-1.9-9-2.2-2.8-0.3-5.4-0.3-5.7 0zm521.2 1.2c-2.8 0.8-6.4 2-8 2.8-1.5 0.7-4.2 2.5-6 4-1.7 1.4-3.2 3.3-3.2 4.1 0 0.8-0.5 1.5-1 1.5-0.6 0-2 2.1-3.2 4.7-1.5 3.4-2.2 6.8-2.2 11.8-0.1 5.5 0.5 8.2 2.5 12.5 1.4 3 4.3 7.2 6.5 9.3 2.1 2.1 5.9 4.7 8.4 5.9 3.3 1.6 6.5 2.2 12 2.2 6.2 0.1 8.5-0.4 13-2.6 3-1.4 7-4.2 8.7-6.2 1.8-2 4.3-5.5 5.5-7.9 1.8-3.4 2.3-5.8 2.3-12.7 0-7.3-0.4-9.2-2.8-13.8-1.5-2.8-3.9-6.4-5.5-7.8-1.5-1.4-4.5-3.5-6.7-4.7-2.2-1.1-6.3-2.6-9-3.3-2.8-0.8-5.2-1.4-5.5-1.3-0.3 0-2.9 0.7-5.8 1.5zm-39.7 328.3c-3.3 0.9-7.8 2.9-10 4.3-2.2 1.5-5.4 4.6-7.1 7-1.7 2.4-3.7 5.9-4.5 7.8-0.8 1.9-1.4 6.6-1.4 10.5 0 4.9 0.7 8.4 2.1 11.5 1.1 2.5 3.6 6.2 5.5 8.3 1.9 2.2 6.1 5.2 9.4 6.8 4.7 2.3 7.3 2.9 12.2 2.9 3.8 0 8.4-0.8 11.5-2 3.1-1.1 7.2-3.8 9.7-6.2 2.3-2.4 5.2-6.1 6.4-8.3 1.2-2.4 2.2-6.8 2.5-11 0.3-3.9 0.1-7.9-0.3-9-0.4-1.1-1-2.9-1.2-4-0.2-1.1-1.2-3.4-2.3-5-1-1.7-3.5-4.6-5.5-6.5-1.9-1.9-3.5-3.2-3.5-2.8 0 0.5-0.7 0.1-1.5-0.7-0.8-0.8-4.5-2.4-8.3-3.5-3.7-1.1-6.9-1.9-7.2-1.9-0.3 0-3.2 0.8-6.5 1.8zm-441.7 4.3c-2.9 0.4-5.6 1.3-6 2-0.4 0.7-0.8 1-0.8 0.5 0-0.4-1-0.2-2.3 0.5-1.2 0.6-4 2.8-6.2 4.8-2.2 2.1-5.1 6.1-6.4 9.1-1.7 3.8-2.5 7.2-2.5 11.4 0 3.3 0.3 7.1 0.6 8.5 0.3 1.4 1.4 4.3 2.6 6.5 1.1 2.2 3.8 5.7 5.9 7.7 2.1 2 6 4.7 8.8 5.9 3.4 1.6 7.1 2.3 11.5 2.3 4.1 0.1 8.1-0.6 11-1.7 2.5-1.1 6.4-3.4 8.7-5.3 2.7-2.1 5.5-5.7 7.4-9.7 2.8-5.7 3-6.8 2.7-14.2-0.3-5-1.1-9.3-2.3-11.5-1-1.9-3-5.1-4.5-7-1.5-1.9-4.9-4.7-7.6-6.2-2.7-1.5-7.2-3.1-10.1-3.6-2.8-0.4-7.6-0.4-10.5 0zm378.9 11.9c-2 0.5-5.4 1.7-7.5 2.8-2 1-5.7 4.1-8.2 6.8-3 3.3-5.1 6.9-6.4 10.8-1 3.3-1.9 7.6-1.9 9.5 0 1.9 0.7 5.7 1.6 8.5 0.9 2.7 3 6.9 4.7 9.2 1.6 2.4 5.1 5.6 7.7 7.3 2.7 1.6 5.1 2.7 5.5 2.5 0.5-0.3 0.8-0.1 0.8 0.5 0 0.5 0.7 0.8 1.5 0.5 0.8-0.3 1.7-0.1 2 0.5 0.3 0.5 3.3 0.9 6.7 0.9 3.5-0.1 8.5-1 11.3-2 2.8-1 7-3.7 9.5-6.1 2.5-2.4 5.6-6.4 6.8-9.1 1.2-2.6 2.5-7.1 2.8-10q0.7-5.2-0.9-10.7c-0.9-3-2.9-7.5-4.6-10-1.7-2.6-5.2-5.9-8.3-7.7-2.9-1.8-6.9-3.6-8.8-3.9-1.9-0.3-5.1-0.8-7-0.9-1.9-0.2-5.2 0-7.3 0.6zm-318.7 9c-2.5 0.5-6.9 2.4-9.8 4.1-3.6 2.3-6.4 5.1-8.8 8.8-1.9 3-3.7 7.1-4.1 9-0.4 1.9-0.6 6.2-0.5 9.5 0.1 4.1 0.9 7.5 2.6 11 1.3 2.7 3.9 6.5 5.8 8.3 1.8 1.9 5.8 4.6 8.8 6 4.4 2.1 6.9 2.7 12.5 2.6 5.4 0 8.2-0.6 12.5-2.6 3.3-1.5 7.2-4.6 9.8-7.5 2.3-2.6 4.9-6.8 5.8-9.3 0.8-2.5 1.4-6.5 1.5-9 0-2.5-0.3-6.1-0.6-8-0.3-1.9-1.5-5.5-2.8-7.9-1.2-2.4-4.2-6.1-6.7-8.3-2.5-2.1-6.5-4.5-9-5.3-2.5-0.7-6.3-1.6-8.5-1.8-2.2-0.3-6-0.1-8.5 0.4z"/><path class="f" d="m213.5 228c-2.8 1-7.2 3.8-9.9 6.2-3.1 2.8-5.9 6.6-7.9 10.8-2.6 5.5-3.1 7.6-3 13.5 0 4.4 0.8 9 2.1 12.5 1.2 3.3 3.9 7.4 6.6 10.2 2.5 2.7 6.3 5.7 8.3 6.7 2.1 1 6.5 2.6 9.8 3.5 5.4 1.4 6.6 1.4 12 0 3.3-0.9 7.7-2.5 9.7-3.5 2.1-1 5.7-3.8 8-6.2 2.3-2.3 5.3-6.7 6.7-9.7 1.9-4.3 2.5-7.2 2.5-13 0-6.4-0.4-8.5-3.1-14-2-4.2-4.8-8-7.9-10.8-2.7-2.4-7.3-5.2-10.2-6.3-3.3-1.2-7.6-1.9-12-1.8-4 0-8.7 0.8-11.7 1.9zm402 1c-2.2 0.4-5.9 1.7-8.3 2.9-2.3 1.1-5.9 3.6-8 5.5-2 1.8-4.9 5.5-6.4 8.2-1.4 2.7-3.1 7.5-3.7 10.6-0.8 4.1-0.8 7.4-0.1 11 0.6 2.9 2 7.2 3 9.5 1.1 2.4 4.1 6.5 6.7 9.1 3.2 3.2 6.8 5.5 10.8 7.1 4.9 1.8 7.5 2.2 14 1.9 6-0.2 9.3-0.9 13-2.8 2.7-1.3 6.8-4.2 9-6.5 2.3-2.2 5.2-6.3 6.5-9 1.9-3.7 2.6-7 2.8-13 0.3-6.2-0.1-9.2-1.7-13.5-1.1-3-3.8-7.5-5.9-10-2.2-2.5-6.1-5.7-8.8-7.2-2.7-1.4-7.6-3.1-10.9-3.7-3.3-0.6-6.5-1.1-7-1-0.6 0.1-2.8 0.5-5 0.9zm41.5 86.4c-3 0.6-7.6 2.4-10.3 3.9-2.6 1.5-6.4 4.8-8.5 7.4-2.1 2.7-4.6 7.3-5.6 10.3-1.3 3.9-1.7 7.5-1.5 12.5 0.3 4.9 1.2 8.6 3.1 12.5 1.4 3 4.1 7 6 8.9 1.8 1.8 6.2 4.7 9.8 6.5 5.5 2.7 7.5 3.1 14 3.1 5.6-0.1 8.8-0.7 12.5-2.4 2.8-1.2 6.8-3.7 8.9-5.4 2.1-1.8 5-5.2 6.5-7.7 1.4-2.5 3.3-7.4 4.3-11 1.6-6 1.7-6.9 0.2-12.5-0.9-3.3-2.3-7.4-3.2-9-0.8-1.7-2.5-4.3-3.6-5.8-1.2-1.6-4.4-4.3-7.1-6.2-2.8-1.8-6.6-3.8-8.5-4.3-1.9-0.6-5.3-1.2-7.5-1.5-2.2-0.3-6.5 0-9.5 0.7zm-30 63.7c-2.5 0.5-6.5 1.9-9 3.1-2.5 1.2-6.3 4.1-8.5 6.3-2.2 2.3-5.1 6.3-6.5 9-2.2 4.3-2.5 6.3-2.5 15 0 9.2 0.2 10.4 3 15.4 1.6 3 4.6 7 6.5 8.9 1.9 1.8 6 4.5 9 6 4.7 2.3 6.8 2.7 14.5 2.7 7.7 0 9.8-0.4 14.5-2.7 3-1.5 7.1-4.2 9-6 1.9-1.9 4.8-5.9 6.4-8.9 2.5-4.5 3.1-6.8 3.4-13.9 0.3-6.4 0-9.6-1.4-13-0.9-2.5-3.1-6.5-4.9-9-1.8-2.5-5.4-5.9-8.1-7.6-2.7-1.8-6.5-3.6-8.4-4.2-1.9-0.6-5.5-1.3-8-1.6-2.5-0.2-6.5 0-9 0.5zm-435.5 4.7c-3.6 1.7-7.8 4.9-10.4 7.8-2.5 2.7-5.4 6.9-6.5 9.4-1.5 3.3-2 6.7-2 12.5 0 6.5 0.4 9.1 2.5 13.5 1.4 3 4.5 7.5 6.9 10 2.5 2.4 6.7 5.4 9.5 6.7 2.7 1.2 7.5 2.5 10.5 2.9 3.9 0.5 7.3 0.2 11.5-1.1 3.3-0.9 8-2.9 10.5-4.5 2.5-1.6 5.4-4.1 6.6-5.7 1.2-1.5 3.1-4.8 4.4-7.3 1.7-3.3 2.5-6.7 2.8-12.5 0.3-6.4 0-9.1-1.7-13.5-1.1-3-3.8-7.5-5.9-10-2.2-2.5-6.3-5.8-9.3-7.5-4.6-2.5-6.7-3-14.4-3.3-8.3-0.3-9.5-0.1-15 2.6zm20.9 134.9c-2.8 1-6.9 3.2-9 4.9-2.2 1.7-5.4 5.1-7.2 7.5-1.9 2.4-4.1 6.9-4.9 9.9-1 3.6-1.4 7.9-1.1 12.5 0.3 4.9 1.3 8.6 3.1 12.2 1.5 2.9 4.5 7.1 6.7 9.3 2.2 2.2 5.7 4.9 7.7 5.9 2.1 1.1 6.7 2.6 10.3 3.4 6 1.4 7 1.4 13.5-0.4 3.8-1.1 9.2-3.5 12-5.4 2.7-1.9 6.4-5.6 8.2-8.2 1.8-2.6 4.1-8.2 5.2-12.3 1.9-7.1 1.9-7.8 0.4-13.5-0.8-3.3-2.4-7.7-3.4-9.8-1.1-2-3.7-5.5-5.9-7.7-2.2-2.2-6.4-5.2-9.3-6.7-4-2-7-2.7-13.2-3-5.8-0.3-9.4 0.1-13.1 1.4z"/><path class="g" d="m150.1 201.3c-1.9 0.7-5.5 3-7.9 5.2-2.5 2.2-5.4 5.8-6.3 8-1.1 2.4-1.9 6.4-1.9 10 0 3.6 0.8 7.6 1.9 10 0.9 2.2 3.8 5.8 6.2 8 2.7 2.4 6.5 4.6 9.5 5.4 3.1 0.9 6.7 1.2 9.9 0.7 2.7-0.3 6.9-1.8 9.3-3.2 2.3-1.4 5.6-4.4 7.2-6.7 1.7-2.3 3.5-6.5 4-9.2 0.7-3.4 0.7-6.6 0-10-0.5-2.8-2.3-6.9-4-9.3-1.6-2.3-5.1-5.4-7.8-6.9-3.3-1.9-6.4-2.7-10.7-2.9-3.3-0.2-7.5 0.2-9.4 0.9zm537.4 3.5c-2.2 1.1-5.2 3-6.6 4.3-1.4 1.3-3.5 4.2-4.6 6.4-1.1 2.2-2.3 5.6-2.7 7.5-0.4 1.9-0.2 5.6 0.4 8.2 0.5 2.7 2.3 6.7 3.9 9 1.8 2.7 4.8 5.4 8.2 7.2 4.1 2.2 6.7 2.9 10.9 2.8 3 0 7.5-0.8 9.9-1.9 2.6-1 6.1-3.7 8.3-6.3 2.1-2.5 4.4-6.1 5-8 0.6-1.9 0.9-6.3 0.7-9.7-0.3-4.8-1-7-3.5-10.5-1.6-2.3-4.9-5.7-7.3-7.3-3.6-2.5-5.4-3-11.4-3.3-5.4-0.2-8.2 0.2-11.2 1.6zm-592 73.2c-2.2 1.2-5.2 3.3-6.8 4.8-1.5 1.5-3.7 4.9-4.8 7.7-1.6 3.7-2 6.5-1.8 11.1 0.3 4.6 1.1 7.2 3.5 11 1.9 3.1 4.8 6 7.9 7.9 3.7 2.3 6.3 3.1 10.9 3.3 4.2 0.3 7.5-0.2 10.6-1.4 2.5-1 5.8-3 7.4-4.4 1.6-1.4 4-4.8 5.4-7.5 2.1-4.2 2.4-6.1 2.1-12.2-0.3-6-0.9-7.8-3.4-11.4-1.7-2.4-5-5.7-7.3-7.3-3.8-2.7-5.3-3.1-12-3.4-6.2-0.2-8.5 0.2-11.7 1.8zm638.5 0.2c-1.9 0.7-5.8 3.5-8.5 6.3-3.1 3-5.5 6.6-6.3 9-0.6 2.2-1.2 5.6-1.2 7.5 0 1.9 0.6 5.5 1.5 8 0.8 2.5 3.1 6.3 5.2 8.4 2.1 2.2 5.6 4.8 7.8 5.8 2.3 1 6.4 1.8 9.5 1.8q5.5 0 10.5-2.3c2.7-1.3 6.3-3.9 7.9-5.8 1.5-1.9 3.5-5 4.3-6.9 0.9-2.2 1.3-5.9 1.1-10.1-0.2-5.2-0.9-7.6-3.4-11.5-1.7-2.8-4.9-6.1-7.5-7.7-3.3-2.1-6-2.9-10.9-3.2-3.6-0.2-8.1 0.1-10 0.7zm-15 49.9c-1.9 0.6-5.3 2.4-7.5 3.9-2.2 1.5-5.2 4.9-6.6 7.6-1.5 2.7-3 6.7-3.4 8.9-0.4 2.6-0.1 6 0.9 9.7 1.2 4.4 2.7 6.9 6.3 10.6 3.2 3.2 6.3 5.2 9.3 6.1 2.5 0.7 7 1.1 10.1 1 3.9-0.3 6.9-1.2 10.4-3.4 3.1-1.9 6-4.8 7.9-7.9 2.4-3.8 3.2-6.4 3.5-11 0.2-3.4-0.1-7.7-0.7-9.6-0.7-1.9-2.8-5.5-4.9-7.9-2.1-2.4-5.6-5.3-7.8-6.4-2.2-1-6.3-2.1-9-2.3-2.8-0.2-6.6 0.1-8.5 0.7zm-613.3 1.4c-3 1-6.3 3.1-9.2 6-3.4 3.4-4.9 6-6.1 10.2-1 3.7-1.4 7.4-1 10 0.3 2.4 1.5 6 2.5 8 1.1 2.1 3.4 5.2 5.3 7 1.8 1.8 5 3.9 7 4.7 2.1 0.9 6.4 1.6 9.5 1.6 3.2 0 7.4-0.6 9.3-1.4 1.9-0.7 5-2.7 6.9-4.2 1.9-1.6 4.4-5 5.7-7.7 1.7-3.4 2.4-6.4 2.4-10.7 0-3.3-0.7-7.7-1.6-9.8-0.8-2-2.9-5.2-4.7-7-1.8-1.9-5-4.3-7.2-5.4-2.2-1.1-6.3-2.2-9-2.4-2.8-0.2-7.1 0.3-9.8 1.1zm636 155.6c-2 0.5-4.9 1.5-6.5 2.3-1.5 0.7-4.4 3.3-6.5 5.7-2.1 2.4-4.2 6-4.7 7.9-0.6 1.9-1 5.5-1 8 0 2.5 1 6.5 2.1 9 1.1 2.5 3 5.6 4.2 6.9 1.2 1.3 4.4 3.4 7.2 4.7 3 1.4 6.8 2.4 9.5 2.4 2.5 0 6.3-0.6 8.4-1.3 2.2-0.6 5.8-2.8 8-4.8 2.3-1.9 4.9-5.5 6-8 1.1-2.5 1.9-6.8 1.9-9.9 0-3.3-0.8-6.9-1.8-9-1-1.9-2.6-4.6-3.5-6-1-1.4-3.9-3.7-6.6-5.1-2.7-1.5-6.7-2.9-8.9-3.2-2.2-0.2-5.7-0.1-7.8 0.4zm-648.2 5.2c-2.2 0.7-5.6 2.5-7.5 3.9-1.9 1.4-4.8 5-6.4 8-2.3 4.2-2.9 6.6-2.9 11.3 0 4.7 0.6 7.1 2.9 11.4 1.7 3.2 4.5 6.5 6.9 8.1 2.2 1.5 6 3.3 8.5 4 2.7 0.7 6.3 0.9 9 0.5 2.5-0.4 6.1-1.5 8-2.5 1.9-1 4.7-3.1 6.2-4.7 1.5-1.5 3.6-4.8 4.7-7.3 1.2-2.6 2.1-6.6 2.1-9.5 0-2.9-0.9-6.9-2.1-9.5-1.1-2.5-3.2-5.8-4.7-7.3-1.5-1.6-4.5-3.8-6.7-4.9-2.2-1.1-6.3-2.2-9-2.4-2.8-0.2-6.8 0.2-9 0.9zm602 83.2c-2.2 0.8-5.8 3.1-7.9 5.2-2.2 2.1-4.8 5.6-5.8 7.8-1 2.3-1.8 6.4-1.8 9.7 0 3.2 0.6 7.3 1.3 9 0.8 1.8 2.9 5.1 4.8 7.2 1.9 2.2 5.4 4.8 7.9 5.9 2.7 1.2 6.7 2 10 2 3.8 0.1 7-0.7 10.4-2.4 2.7-1.3 6.3-4 8-6 1.7-2 3.7-5.4 4.3-7.5 0.7-2.1 1.3-6.2 1.3-8.9 0-2.8-0.9-6.8-1.8-9-1-2.2-3.6-5.7-5.8-7.8-2.1-2.1-5.9-4.4-8.4-5.2-2.5-0.9-6.3-1.5-8.5-1.4-2.2 0-5.8 0.7-8 1.4zm-558 3.4c-2.2 1-5.5 3.3-7.4 5.2-1.8 1.9-4 4.7-4.9 6.4-0.8 1.6-1.7 5.5-2 8.5-0.4 4 0 6.9 1.3 10.5 1.1 2.7 3.3 6.5 5 8.4 1.6 1.8 4.8 4.3 7 5.4 2.2 1.1 6.5 2.2 9.5 2.5 4.4 0.3 6.6 0 10.9-1.9 3.1-1.4 7-4.1 9-6.5 2-2.2 4.2-6.2 5-9 0.8-2.9 1.2-7 0.9-9.9-0.3-2.8-1.2-6.4-2-8-0.9-1.7-3.1-4.5-4.9-6.4-1.9-1.9-5.2-4.2-7.4-5.2-2.4-1.1-6.3-1.9-10-1.9-3.7 0-7.6 0.8-10 1.9z"/><path class="h" d="m367 223.6c-3 0.8-7.3 2.6-9.5 3.8-2.2 1.3-5.9 4.4-8.3 6.7-2.4 2.4-5.5 6.9-7 9.9-2.4 4.9-2.7 6.6-2.7 16 0 9.4 0.3 11.1 2.7 16.2 1.6 3.2 4.8 7.8 7.3 10.3 2.5 2.5 6.6 5.6 9.2 6.9 2.7 1.3 7.6 3.1 11 4 5.8 1.5 6.9 1.5 13 0 3.8-0.9 8.8-2.6 11.3-3.9 2.5-1.3 6.6-4.5 9.2-7.2 2.6-2.6 6-7.5 7.5-10.8 2.5-5.3 2.8-7.2 2.8-15.5 0-8.7-0.3-10.1-3.2-16-2.1-4.4-5-8.2-9-11.8-3.6-3.4-7.9-6.1-11.3-7.3-3-1.1-8.2-2.2-11.5-2.5-3.7-0.2-8.2 0.2-11.5 1.2zm93 1.9c-3 0.9-8.2 3.4-11.5 5.5-3.7 2.5-7.3 5.9-9.5 9.1-1.9 2.9-4.3 7.5-5.2 10.3-1 2.8-1.8 7.8-1.8 11.1 0 3.4 0.8 8.8 2 12.5 1.1 3.6 3.6 8.6 5.5 11.2 1.9 2.7 6.3 6.6 9.7 8.8 3.5 2.2 8.5 4.5 11.3 5.1 2.7 0.7 8.4 1 12.5 0.7 5.3-0.3 9.1-1.2 13-3.1 3-1.4 7.7-4.7 10.4-7.4 2.7-2.6 5.9-6.8 7.1-9.3 1.3-2.5 3-7.4 4-11 1.6-6.3 1.6-6.7-0.5-14.5-1.2-4.4-3.6-10.2-5.3-12.9-1.8-2.7-4.8-6.3-6.7-7.9-1.9-1.7-6.2-4.3-9.5-5.9-4-1.8-8.3-2.9-13-3.3-4.7-0.3-8.8 0-12.5 1zm90 139.4c-3.6 0.9-8.9 3-11.9 4.6-2.9 1.7-7 4.8-8.9 7-2 2.2-5 6.9-6.6 10.5-2.7 5.7-3.1 7.6-3.1 15.5 0 8.1 0.3 9.7 3.3 15.7 1.7 3.8 5.2 8.8 7.7 11.3 2.5 2.5 6.6 5.6 9.2 6.9 2.7 1.3 7.7 3 11.3 3.6 5.2 1.1 7.8 1.1 13 0.1 3.6-0.7 8.6-2.4 11.2-3.7 2.7-1.3 6.8-4.4 9.3-6.9 2.5-2.5 5.6-6.6 6.9-9.3 1.3-2.6 2.9-7.2 3.6-10.2 0.8-3.4 1-7.8 0.6-11.5-0.3-3.4-1.9-8.7-3.6-12.3-1.7-3.4-5-8.2-7.5-10.7-2.5-2.5-6.6-5.6-9.3-6.9-2.6-1.3-7.7-3.1-11.5-4-3.7-0.9-6.8-1.6-7-1.5-0.1 0-3.1 0.8-6.7 1.8zm29.4 74.9c-2.8 0.9-7.4 3.3-10.2 5.2-2.9 1.9-6.5 5.3-8.1 7.5-1.5 2.2-3.5 5.3-4.4 7-0.8 1.6-2.2 6.1-3.2 10-1.6 6.6-1.6 7.4 0 13.5 0.9 3.6 2.9 8.7 4.3 11.4 1.5 2.7 4.2 6.4 5.9 8.2 1.8 1.9 5.7 4.7 8.5 6.4 2.9 1.6 8.4 3.7 12.3 4.6 6.4 1.4 7.5 1.4 13.5-0.1 3.6-0.9 8.5-2.7 11-4 2.5-1.2 6.5-4.3 9-6.8 2.5-2.4 5.8-7.1 7.4-10.3 2.3-4.6 3.1-7.7 3.4-13.9 0.4-5.9 0-9.5-1.2-13.5-1-3-3.4-7.9-5.4-10.9-2-2.9-5.7-6.8-8.2-8.7-2.5-1.8-7.2-4.2-10.5-5.4-3.8-1.3-8.4-2-12.5-2-3.6 0-8.8 0.8-11.6 1.8zm-215.9 95.3c-2.2 0.5-6.7 2.4-9.9 4.2-3.3 1.8-7.5 5-9.3 7.2-1.9 2.2-4.5 6-5.8 8.5-1.3 2.5-2.8 7.4-3.4 11-0.9 4.7-0.9 8-0.1 12 0.6 3 2.2 7.9 3.5 10.7 1.4 2.9 4.5 7.3 7 9.8 2.5 2.5 6.9 5.6 9.7 7 2.9 1.3 7.8 2.9 10.8 3.5 4 0.8 7.3 0.8 12-0.1 3.6-0.6 8.5-2.1 11-3.4 2.5-1.3 6.5-4 8.9-6.2 2.7-2.4 5.6-6.4 7.7-10.8 2.2-4.4 3.6-9.2 4-13 0.4-4.1 0.1-8.1-1-12.5-0.9-3.8-3.2-8.8-5.4-12-2-3-6-7.1-8.7-9.2-2.8-2.1-7-4.5-9.5-5.3-2.5-0.9-7.4-1.8-11-2-3.6-0.2-8.3 0-10.5 0.6z"/><path class="i" d="m292.5 219.5c-2.8 0.7-6.4 1.8-8 2.5-1.7 0.6-5 2.6-7.3 4.3-2.4 1.8-6.2 5.9-8.3 9.2-2.7 4-4.5 8.3-5.5 13-1.3 6.4-1.3 7.5 0.3 13.5 1 3.6 3.4 9.1 5.3 12.3 2.3 3.7 5.3 7 8.5 9.2 2.7 1.9 7 4.1 9.5 5 2.5 0.8 7.8 1.5 11.7 1.5 5 0 9.1-0.7 13-2.2 4.2-1.5 7.5-3.8 11.9-8.2 4.5-4.5 6.7-7.7 8.3-12.1 1.9-5 2.2-7.4 1.9-14.5-0.4-6.7-1-9.6-3.1-13.8-1.5-2.8-4.2-6.9-6.1-9-1.8-2-5.5-4.9-8.2-6.4-2.7-1.5-7.8-3.4-11.4-4.2-3.6-0.9-6.7-1.5-7-1.5-0.3 0.1-2.8 0.7-5.5 1.4zm248 9.4c-3.3 1-7.8 2.7-10 3.8-2.2 1.1-5.9 4.1-8.3 6.7-2.3 2.5-5.1 6.3-6.1 8.3-1 2.1-2.4 6.5-3.1 9.8-0.9 4.5-0.9 7.5-0.1 12 0.6 3.3 2.1 8 3.3 10.5 1.2 2.5 4.3 6.5 6.8 9 2.5 2.5 6.5 5.6 9 6.8 2.5 1.2 7.2 2.6 10.5 3.2 3.3 0.7 7.8 0.8 10 0.4 2.2-0.3 5.8-1.3 8-2.1 2.2-0.7 6.2-2.9 9-4.8 3.2-2.2 6.2-5.5 8.5-9.2 1.9-3.2 4.3-8.7 5.3-12.3 1.6-6 1.6-7 0.2-13.5-1-4.7-2.8-9.1-5.5-13.3-2.6-4-5.8-7.4-9.3-9.7-2.8-2-8.4-4.4-12.2-5.5-3.9-1.1-7.7-2-8.5-1.9-0.8 0-4.2 0.8-7.5 1.8zm-302.5 65.4c-2.5 0.7-6.6 2.5-9.3 4-2.6 1.5-6.3 4.4-8.3 6.4-1.9 2.1-4.7 6.3-6.2 9.3-2.1 4.2-2.8 7.3-3 13.5-0.2 4.7 0.2 9.9 0.9 12.5 0.7 2.5 3 7 5 10 2.1 3.2 5.9 7 9 9.2 3.3 2.2 8.5 4.5 13.1 5.7 7.4 2 8.1 2 14 0.5 3.5-0.9 8.3-2.6 10.8-3.9 2.5-1.2 6.6-4.6 9.2-7.4 2.7-2.8 5.8-7.2 7-9.9 1.9-3.9 2.3-6.4 2.3-14.7 0-8.8-0.3-10.6-2.7-15.5-1.5-3-4.6-7.4-7-9.8-2.4-2.4-7-5.7-10.3-7.3-4.3-2.1-8-3.1-13-3.4-4.1-0.3-8.9 0-11.5 0.8zm379 217.6c-3.6 0.9-7.6 2.3-9 3-1.4 0.8-4.5 3-6.9 5-2.4 2-5.7 5.8-7.2 8.6-1.6 2.7-3.5 7.9-4.3 11.5-1.4 5.8-1.4 7.2 0 13 0.8 3.6 2.6 8.4 3.9 10.7 1.4 2.4 4.2 5.9 6.2 7.9 2.1 2 6.7 5 10.3 6.7 5.2 2.4 7.9 3 13.5 3 4.1 0.1 9.1-0.6 12-1.6 2.7-1 7.1-3.3 9.7-5.2 2.7-1.9 6.1-5.4 7.7-7.8 1.6-2.3 3.6-6.3 4.5-9 0.9-2.6 1.6-7.7 1.6-11.5 0-3.7-0.7-8.7-1.5-11.2-0.9-2.5-3.1-6.8-5-9.5-2.2-3.2-5.5-6.2-9.2-8.5-3.2-1.9-8.7-4.3-12.3-5.2-3.6-1-6.7-1.8-7-1.7-0.3 0-3.4 0.8-7 1.8zm-75 19.6c-3 0.9-7.9 3.1-10.9 5-2.9 1.9-6.4 4.9-7.7 6.7-1.2 1.8-3.5 6-5 9.3-2.2 4.9-2.7 7.4-2.7 13.5q0.1 7.5 2.1 13c1.2 3 4.1 7.7 6.5 10.5 2.4 2.7 6.6 6.2 9.3 7.7 2.7 1.5 7.8 3.4 11.4 4.2 5.9 1.4 7.2 1.4 13.5-0.1 4.7-1.1 9-3 12.9-5.7 3.4-2.3 7.5-6.3 9.4-9.1 1.8-2.8 4-7.5 4.9-10.5 1-3.6 1.4-7.9 1.1-12.5-0.3-4.1-1.4-8.9-2.6-11.8-1.2-2.6-4.4-7.1-7.1-10-3-3.3-7-6.2-10.7-7.9-3.6-1.6-8.5-2.9-12.4-3.2-4.3-0.4-8.3-0.1-12 0.9zm-255.5 7.3c-3.3 1-8 2.9-10.5 4.3-2.5 1.5-6 4.3-7.8 6.3-1.7 2-4.4 6-5.9 8.8-2.5 4.8-2.8 6.3-2.8 15.3 0 9.1 0.3 10.5 3 15.9 1.6 3.2 4.6 7.5 6.6 9.5 2 2 6.3 4.9 9.5 6.5 4.6 2.3 7.6 3 13.9 3.4 6.6 0.3 9 0 14-1.9 3.3-1.3 7.8-3.7 10-5.4 2.2-1.7 5.5-5.3 7.3-8 1.8-2.8 4-7.3 4.8-10 0.8-2.8 1.5-6.8 1.6-9 0-2.2-0.4-6.3-1.1-9-0.6-2.8-2.9-7.8-5.1-11.3-3-4.6-5.6-7.2-10.3-10.2-4-2.6-8.6-4.6-13-5.5-3.7-0.8-7-1.5-7.5-1.4-0.4 0-3.4 0.8-6.7 1.7zm130 56c-3.3 1-8.6 3.3-11.9 5.2-3.5 2.1-7 5.3-8.9 8-1.7 2.5-4 6.7-5.1 9.5-1.3 3.4-1.9 7.3-1.9 12.5 0 5.1 0.7 9.3 2.1 13 1.1 3 4.1 7.7 6.5 10.5 2.4 2.7 6.6 6.2 9.3 7.7 2.7 1.4 7.8 3.4 11.4 4.3 6.1 1.5 6.9 1.5 13 0 3.6-0.9 8.1-2.5 10-3.5 1.9-1 5.3-3.4 7.5-5.3 2.2-1.8 5.6-6.3 7.5-9.8 3.4-6.2 3.5-6.8 3.5-16.9 0-9.5-0.3-11-2.8-15.8-1.5-2.8-4.2-6.8-6-8.8-1.7-2-5.2-4.8-7.7-6.2-2.5-1.5-7.4-3.4-11-4.4-3.6-1-7.2-1.8-8-1.7-0.8 0-4.2 0.8-7.5 1.7z"/><path class="j" d="m410.1 47.2c-1.8 0.4-4.1 2.1-5.2 3.6-1.2 1.7-2 4.2-1.9 6.9 0 3.4 0.6 4.9 3 7.3 2.4 2.4 3.8 3 7.5 3 3.3 0 5.2-0.6 7-2.3 1.4-1.2 2.9-3.6 3.4-5.2 0.4-1.7 0.4-4.4 0-6-0.4-1.7-1.6-3.8-2.6-4.7-1-1-3.2-2.1-4.9-2.6-1.7-0.5-4.5-0.5-6.3 0zm18.1 0.3c-0.7 0.8-1 2.2-0.7 3 0.3 0.8 1.2 1.8 2 2.2 1 0.5 2.2 0.1 3.3-1 1.3-1.3 1.5-2.1 0.6-3.5-0.6-0.9-1.8-1.8-2.6-2-0.8-0.2-2 0.4-2.6 1.3zm-136.2 3.8c-1.9 1.3-4.3 4-5.3 6-0.9 2.1-1.7 5.4-1.7 7.4 0 2.1 1 5.6 2.3 7.7 1.2 2.1 3.8 4.7 5.7 5.7 1.9 1.1 5.5 1.9 8 1.9 3 0 5.6-0.7 7.9-2.2 1.9-1.3 4.4-3.9 5.5-5.8 1.1-1.9 2-5.3 2-7.5 0-2.2-0.9-5.6-2-7.5-1.1-1.9-3.6-4.5-5.5-5.8-2.4-1.6-4.8-2.2-8.4-2.2-3.5 0-6 0.7-8.5 2.3zm146 2.6c-1.8 1.9-2.9 4.1-2.9 6-0.1 2 0.8 4 2.4 5.6 1.7 1.7 3.6 2.5 6 2.5 2.5 0 4.3-0.8 6-2.5 1.7-1.6 2.5-3.6 2.5-5.8 0-1.7-0.6-3.9-1.3-4.8-0.7-0.9-2.2-2.1-3.5-2.7-1.2-0.7-3.1-1.2-4.3-1.2-1.1 0-3.3 1.3-4.9 2.9zm28 0c-1.9 1-5 3.5-6.8 5.5-1.7 2-3.6 5.3-4.2 7.3-0.5 2.1-1 4.9-1 6.3 0 1.4 0.6 4.3 1.2 6.5 0.7 2.2 3.1 5.8 5.3 8.1 2.2 2.2 5.8 4.6 8 5.3 2.2 0.8 6.3 1.2 9.1 1 3.3-0.3 6.4-1.3 9.2-3.2 2.3-1.5 5.1-4.2 6.2-6 1.1-1.7 2.5-5 3.1-7.2 0.8-2.9 0.8-5.4 0-9-0.7-3-2.4-6.6-4.4-8.9-1.7-2.1-4.9-4.7-7-5.7-2.3-1.2-5.8-1.9-9.5-1.9-3.5 0.1-7 0.8-9.2 1.9zm-94 3.9c-3 1.8-5.3 4.3-6.7 7.2-1.4 2.8-2.3 6.4-2.3 9.2 0 2.7 0.6 6.3 1.4 8 0.7 1.8 2.9 4.7 4.7 6.5 1.9 1.7 4.6 3.7 6.1 4.2 1.6 0.6 4.9 1.1 7.5 1.1 3.1 0 6.4-0.8 9.3-2.3 2.8-1.5 5.6-4 7.3-6.8 2.2-3.4 2.9-5.6 2.9-9.9 0.1-3.4-0.6-6.8-1.7-9-0.9-1.9-2.5-4.3-3.4-5.4-0.9-1-3.3-2.7-5.4-3.7-2.3-1.2-5.8-1.9-9.5-1.9-4.5 0-6.6 0.6-10.2 2.8zm-21.7 1.8c-1.6 2.4-1.7 2.9-0.3 5.3 1.2 2 2.4 2.6 5 2.6 2.6 0 3.8-0.6 5-2.6 1.4-2.4 1.3-2.9-0.3-5.3-1.2-1.8-2.6-2.6-4.7-2.6-2.1 0-3.5 0.8-4.7 2.6zm200.2 0.3c-1.7 1-4.2 3.4-5.5 5.3-1.9 2.6-2.5 4.6-2.5 9 0 4.2 0.5 6.4 2.1 8.5 1.1 1.5 3.6 3.8 5.5 5.1 2.4 1.6 4.9 2.3 8.4 2.3 3.5 0 6-0.7 8.4-2.3 1.9-1.3 4.4-3.6 5.5-5.1 1.6-2.1 2.1-4.3 2.1-8.6 0-4.7-0.5-6.4-2.8-9.4-1.5-2-4.1-4.4-5.7-5.2-1.7-0.8-5.1-1.5-7.8-1.5-2.9 0-5.9 0.7-7.7 1.9zm-47.9 2.2c-1.3 0.7-1.9 1.9-1.8 3.9q0.2 3 2.7 4.5c2.2 1.3 2.8 1.3 5 0 1.5-0.9 2.5-2.4 2.5-3.8 0.1-1.2-0.7-3-1.7-3.9-1-1-2.5-1.7-3.3-1.7-0.8 0-2.4 0.4-3.4 1zm-226.1 19.4c-2.2 0.8-5.1 2.5-6.3 3.8-1.3 1.2-3.1 3.5-3.9 5.2-0.9 1.6-1.6 5.2-1.6 8 0 2.7 0.7 6.3 1.5 8 0.9 1.6 2.8 4.1 4.4 5.5 1.6 1.4 4.7 3.2 6.9 3.9 2.4 0.8 5.6 1.1 8 0.7 2.2-0.4 5.6-1.7 7.5-3 1.9-1.2 4.5-4.2 5.7-6.7 1.3-2.4 2.3-6.1 2.3-8.2 0-2-0.6-5.2-1.3-7-0.8-1.7-3-4.7-5-6.5-2.1-1.7-5.4-3.6-7.5-4.2-2-0.5-4.4-1-5.2-1-0.8 0.1-3.3 0.7-5.5 1.5zm293.5 9.8c-1.9 0.7-4.4 2.6-5.7 4.2-1.2 1.7-2.7 4.2-3.2 5.7-0.6 1.6-1.1 4.5-1.1 6.5 0 2.1 0.8 5.6 1.8 7.8 1 2.2 3.1 5 4.8 6.1 1.6 1.2 4.8 2.7 7.1 3.3 3.2 0.8 5.4 0.8 8.5 0 2.6-0.7 5.8-2.6 7.9-4.8 2.2-2.1 4.1-5.3 4.8-7.9 0.7-2.5 0.8-5.7 0.3-8-0.4-2-1.9-5.2-3.3-7.1-1.3-1.9-4.2-4.3-6.4-5.3-2.2-1-5.8-1.7-8-1.7-2.2 0-5.6 0.5-7.5 1.2zm-324 3.3c-1.2 1.5-2.2 3.7-2.1 5 0.1 1.3 0.5 3.2 1 4.1 0.4 1 2.1 2.4 3.7 3.2 2.2 1 3.6 1.1 5.9 0.2 1.6-0.6 3.6-2.2 4.2-3.6 0.7-1.4 1.3-3.4 1.3-4.5 0-1.1-1.1-3.1-2.5-4.5-1.7-1.7-3.6-2.5-5.9-2.5-2.5 0-4.1 0.7-5.6 2.6zm-11 8.4c0 1.1 0.6 2.3 1.2 2.6 0.7 0.3 1.9 0 2.7-0.7 0.7-0.8 1-2 0.7-2.7-0.3-0.6-1.5-1.2-2.6-1.2q-2 0-2 2zm367.5 2.5c-1.3 1.3-2.4 3.7-2.5 5.2 0 1.5 0.9 3.8 2 5 1.1 1.3 3.2 2.6 4.7 2.9 1.8 0.3 3.6 0 5-1 1.3-0.9 2.7-2.5 3.3-3.6 0.5-1.1 0.8-3.4 0.5-5-0.3-1.7-1.5-3.7-2.8-4.5-1.2-0.8-3.5-1.5-5-1.5-1.6 0-3.8 1-5.2 2.5zm-378 4.7c-1.1 1.6-1.3 3.2-0.8 5.2 0.5 1.6 1.6 3.3 2.5 3.7 1 0.5 2.7 0.9 3.8 0.9 1.1 0 2.9-1.2 4-2.8 1.3-1.7 1.8-3.4 1.4-4.7-0.3-1.1-1.3-2.6-2.3-3.3-0.9-0.7-2.8-1.2-4.3-1.2-1.7 0-3.3 0.9-4.3 2.2zm23 3.3c-2.2 0.9-5.7 3.2-7.8 5.3-2.1 2-4.5 5.5-5.3 7.7-1 2.6-1.5 6.2-1.2 10.1 0.2 4.5 1 7.1 3 10.2 1.6 2.3 4.7 5.4 7 6.9 3.1 2.1 5.7 2.9 10.2 3.1 3.9 0.3 7.6-0.2 10.1-1.2 2.2-0.8 5.9-3.5 8.2-6 2.6-2.8 4.7-6.3 5.4-8.9 0.6-2.3 0.8-6.1 0.5-8.5-0.3-2.3-1.3-5.7-2.2-7.5-0.9-1.7-2.6-4.3-3.8-5.5-1.1-1.3-3.9-3.3-6.1-4.4-2.2-1.1-6.3-2.2-9-2.4-2.9-0.2-6.6 0.2-9 1.1zm-51.5 3.4c-1.9 1-5.2 3.8-7.3 6.2-2.4 2.9-4.1 6.1-4.8 9.4-0.9 4-0.8 6.1 0.4 10.5 1 3.4 2.9 6.8 4.9 9 1.9 1.9 5.1 4.3 7.3 5.4 2.4 1.1 6.2 1.9 9.5 1.9 3.5-0.1 7-0.8 9.5-2.1 2.2-1 5.4-3.5 7.1-5.3 1.6-1.9 3.6-5.2 4.3-7.4 0.8-2.2 1.2-6.5 1-9.6-0.3-3.9-1.2-6.8-3.2-9.7-1.5-2.3-4.6-5.4-6.9-7-3.4-2.2-5.5-2.7-11.2-3-5.4-0.2-7.9 0.2-10.6 1.7zm427 4.3c-0.8 0.7-1.3 2.1-1.2 3.2 0.1 1.2 0.7 2.7 1.4 3.4 0.7 0.7 2.2 1.2 3.3 1.2 1.2 0 2.6-0.6 3.3-1.3 0.7-0.6 1.2-2.1 1.2-3.2 0-1.1-0.5-2.6-1.2-3.3-0.7-0.7-2.2-1.2-3.4-1.2-1.1 0-2.6 0.5-3.4 1.2zm19.5 1.6c-2.2 1-5.4 3.4-7.1 5.3-1.6 1.9-3.6 5.2-4.3 7.4-0.8 2.2-1.2 6.5-1 9.7 0.3 4.2 1.1 6.7 3.4 10 2 2.8 4.9 5.3 8.5 7.1 4.5 2.3 6.5 2.8 11.1 2.5 4-0.2 6.9-1.1 10.5-3.3 3.6-2.3 5.6-4.5 7.7-8.5 1.6-3 2.9-7.3 3-9.5q0.2-4-2.8-10c-2.1-4.2-4.3-6.9-7.3-9-3.6-2.5-5.5-3-11-3.3-4.9-0.2-7.8 0.2-10.7 1.6zm-50.5 2.9c-3.4 1.8-6.6 4.5-8.5 7.2-2.4 3.4-3.1 5.6-3.4 10.4-0.2 3.5 0.2 7.9 1 10.2 0.7 2.2 2.7 5.5 4.3 7.4 1.7 1.8 4.3 4 5.8 4.7 1.6 0.8 4.7 1.8 7 2.3 2.9 0.7 5.9 0.6 9.3-0.1 2.7-0.7 6.8-2.5 8.9-4.2 2.2-1.7 5-5.1 6.3-7.6 1.6-3.1 2.3-6.2 2.4-10 0-4.1-0.8-6.9-2.9-11-2.1-4.1-4.1-6.3-7.7-8.5-3.7-2.3-6.3-3.1-10.9-3.3-5.2-0.3-6.9 0.1-11.6 2.5zm-425.6 12.5c-1.6 0.4-3.9 1.8-5.2 3.1-1.2 1.2-2.5 3.8-2.8 5.7-0.3 2 0 4.7 0.8 6.4 0.7 1.7 2.6 3.8 4.3 4.8 1.6 1 4.2 1.8 5.7 1.8 1.6 0 4-0.6 5.5-1.4 1.6-0.7 3.6-3.1 4.7-5.2 1.5-3.2 1.7-4.5 0.8-7.4-0.6-1.9-1.9-4.3-2.9-5.2-1-1-3.2-2.1-4.9-2.6-1.7-0.5-4.4-0.5-6 0zm515.8 24.2c-0.7 0.9-1 2.5-0.7 3.6 0.3 1.1 1.2 2.2 2 2.5 0.8 0.3 2.4 0 3.5-0.5 1.4-0.7 1.9-1.8 1.7-3.8-0.1-2.1-0.8-2.8-2.8-3-1.5-0.2-3.1 0.4-3.7 1.2zm-529.2 2.8c-2.5 1.3-5.5 3.9-6.8 5.8-1.5 2.3-2.2 5-2.2 7.7 0 2.4 0.8 6 1.7 8 1 2 3.4 4.7 5.3 6 2.4 1.7 5 2.4 8.5 2.5 3.5 0.1 6.2-0.5 8.7-2 2.3-1.4 4.6-3.9 5.9-6.5 1.6-3 2-5.5 1.7-8.7-0.2-2.6-1.4-5.9-2.8-7.9-1.4-1.9-4.3-4.3-6.5-5.3-2.2-1-5.1-1.8-6.5-1.8-1.4 0-4.5 1-7 2.2zm514.5-0.4c-1 1-1.8 2.8-1.7 4 0.1 1.2 1.2 2.9 2.4 3.7 1.3 0.8 3 1.5 3.8 1.5 0.8 0.1 2.3-0.7 3.2-1.7 1-1 1.8-2.8 1.8-4.1 0-1.2-0.7-2.9-1.5-3.7-0.8-0.8-2.6-1.5-3.9-1.5-1.2 0-3.1 0.8-4.1 1.8zm19.5 8.3c-1.4 0.6-3.5 2-4.8 3.2-1.3 1.2-2.7 3.9-3.2 5.9-0.7 2.7-0.6 4.9 0.3 7.5 0.7 2.3 2.5 4.6 4.7 6 2.1 1.5 5 2.3 7.2 2.3 2.1 0 5-0.6 6.5-1.4 1.6-0.7 3.7-2.6 4.7-4.2 1.1-1.6 2-4.7 2-6.9 0-2.2-0.7-5.2-1.7-6.8-0.9-1.5-2.7-3.4-4-4.2-1.2-0.8-3.8-1.7-5.7-2-1.9-0.2-4.6 0-6 0.6zm-549.9 18.4c-1.5 1.1-2.3 2.5-2.2 4.1 0 1.3 0.8 3.1 1.6 3.9 0.8 0.8 2.3 1.5 3.2 1.5 1 0.1 2.6-0.7 3.5-1.7 1-1 1.8-2.8 1.8-4.1 0-1.2-1-2.9-2.3-3.7-1.2-0.8-2.4-1.5-2.7-1.5-0.3 0-1.6 0.7-2.9 1.5zm568.8 4c-1.2 1.4-1.2 1.8 0.3 3.3 1.1 1 2.3 1.4 3.3 0.9 0.8-0.4 1.4-1.7 1.2-2.9-0.1-1.3-0.9-2.4-1.8-2.6-0.9-0.1-2.2 0.4-3 1.3zm-574.9 8.2c-0.7 0.2-1.3 1-1.2 1.6 0 0.7 0.7 1.7 1.4 2.4 0.7 0.6 1.9 0.9 2.6 0.5 0.8-0.4 1.2-1.6 1-2.6-0.2-1.1-0.8-2-1.3-2.2-0.6-0.1-1.7 0-2.5 0.3zm-16.7 4.7c-1.1 0.7-2.8 2.4-3.7 3.7-0.8 1.3-1.5 3.6-1.6 5.1 0 1.6 0.6 3.9 1.2 5.3 0.7 1.4 2.6 3.3 4.3 4.1 2 1.1 4.2 1.5 6.5 1.1 1.9-0.4 4.6-1.8 6-3.3 1.9-1.9 2.5-3.6 2.5-7.1 0-3.8-0.5-4.9-3.3-7.4-2.2-2-4.2-2.9-6.5-2.9-1.7 0.1-4.2 0.7-5.4 1.4zm612.2 21.4c-1 1-1.8 2.6-1.7 3.5 0.1 0.9 1.3 2.4 2.7 3.2 1.8 1.1 3 1.2 4.5 0.5 1.1-0.6 2.3-2 2.6-3.3 0.3-1.4-0.1-2.8-1.3-4-1-1-2.5-1.8-3.4-1.7-0.9 0-2.4 0.8-3.4 1.8zm-613.3 3.3c-2.9 0.6-5.6 2.2-8.6 5.1-3 3-4.8 5.7-5.6 8.8-0.6 2.5-0.9 6.1-0.5 8 0.4 1.9 1.6 5.2 2.8 7.3 1.2 2.1 3.3 4.6 4.7 5.6 1.4 1 4.3 2.4 6.5 3.1 2.3 0.7 5.9 1 8.5 0.6 2.5-0.3 6.3-1.8 8.5-3.4 2.2-1.5 4.8-4.6 5.9-6.8 1-2.1 2.1-5.3 2.3-6.9 0.3-1.7 0-4.9-0.6-7.3-0.6-2.4-2.7-5.9-4.9-8.3-2-2.2-5.1-4.4-6.7-4.9-1.7-0.4-4.1-1-5.5-1.3-1.4-0.2-4.4 0-6.8 0.4zm608.9 10.3c-1.9 0.7-4.5 2.7-5.8 4.5-1.2 1.7-2.6 4.8-2.9 6.8-0.4 2.1-0.2 5.4 0.4 7.3 0.6 1.9 2.5 4.9 4.4 6.6 1.8 1.7 4.9 3.4 6.8 3.8 1.9 0.4 5 0.5 6.7 0.2 1.8-0.3 4.9-2.1 6.9-3.9 2.2-2 3.9-4.7 4.6-7.2 0.5-2.2 0.7-5.5 0.4-7.3-0.3-1.7-1.8-4.6-3.4-6.4-1.5-1.7-4.2-3.7-6-4.5-1.7-0.7-4.4-1.3-6-1.3-1.5 0.1-4.2 0.7-6.1 1.4zm-650.6 3.1c-2.2 0.8-5.1 2.5-6.4 3.8-1.3 1.2-3 3.7-3.7 5.4-0.8 1.8-1.4 5.4-1.4 8 0 3.4 0.6 5.8 2.3 8.3 1.2 1.9 3.8 4.5 5.7 5.8 1.9 1.2 5.1 2.5 7 2.9 1.9 0.3 5.2 0 7.2-0.6 2.1-0.6 5.4-2.6 7.4-4.4 1.9-1.7 4-4.8 4.6-6.7 0.6-1.9 0.9-5.6 0.7-8.1-0.3-2.9-1.4-5.8-3.2-8.2-1.5-2-4.1-4.4-5.7-5.2-1.7-0.8-4.7-1.7-6.8-2-2.1-0.3-5.4 0.1-7.7 1zm683 4.5c-1.7 1.1-3.8 3.4-4.8 5.2-0.9 1.8-1.7 4.8-1.7 6.5 0 1.8 0.8 4.9 1.7 6.9 1 2 3.1 4.5 4.8 5.5 1.7 1.1 4.9 1.9 7.5 1.9 2.8 0 5.7-0.8 7.7-2 1.8-1.1 4.1-3.2 5-4.8 1-1.5 1.8-4.7 1.8-7.2 0-2.5-0.8-5.7-1.8-7.3-0.9-1.5-3.2-3.6-5-4.7-1.9-1.2-5-2-7.7-2-2.8 0-5.6 0.8-7.5 2zm-681.4 56.5c-0.6 0.8-1 2.3-0.8 3.2 0.1 1.2 1.1 1.8 2.6 1.8 1.3 0 2.9-0.8 3.5-1.8 0.9-1.5 0.7-2.1-0.9-3.3-1.1-0.8-2.3-1.4-2.6-1.4-0.4 0-1.2 0.7-1.8 1.5zm692.6 11c-1.5 0.8-3.4 2.8-4.2 4.5-0.8 1.6-1.5 4.3-1.5 6 0 1.6 0.7 4.3 1.5 6 0.8 1.6 2.8 3.7 4.5 4.5 1.6 0.8 4.6 1.5 6.5 1.5 2.6 0 4.5-0.9 7.2-3.4 3.4-3.1 3.8-3.9 3.8-8.5 0-4.3-0.5-5.5-3-8.1-2.2-2.3-4.2-3.2-7.5-3.6-2.9-0.3-5.5 0.1-7.3 1.1zm-695.2 1.3c-1.7 1-3.8 3.5-4.8 5.5-0.9 2-1.7 4.4-1.7 5.2 0 0.8 0.8 3.4 1.7 5.6 1 2.3 3.1 5 4.8 6 1.6 1 4.8 1.8 7 1.8 2.2 0 5.3-0.8 7-1.8 1.6-1 3.8-3.5 4.7-5.5 1-2 1.8-4.5 1.8-5.6 0-1.1-0.7-3.6-1.5-5.5-0.8-1.9-3-4.4-4.8-5.5-1.8-1.1-5-2-7.2-2-2.2 0-5.4 0.8-7 1.8zm-22.6 11.5c-0.9 0.7-2.1 2.2-2.7 3.4-0.7 1.3-1.2 3.2-1.2 4.3 0 1.1 1.1 3.2 2.4 4.7 1.8 2.1 3.3 2.8 6.1 2.8 2.8 0 4.3-0.7 6.1-2.8 1.3-1.5 2.4-3.6 2.4-4.7 0-1.1-0.5-3-1.2-4.3-0.6-1.2-1.8-2.7-2.7-3.4-0.9-0.7-3-1.2-4.6-1.2-1.7 0-3.7 0.5-4.6 1.2zm716.1 17c-2.5 1.3-5.8 4.3-7.5 6.6-2.5 3.5-3.1 5.5-3.3 10.9-0.3 5.6 0.1 7.5 2 11.2 1.4 2.5 4.4 5.8 6.7 7.5 3.5 2.5 5.5 3.1 10.9 3.3 5.6 0.3 7.5-0.1 11.2-2 2.5-1.4 5.8-4.4 7.5-6.7 2.5-3.5 3.1-5.5 3.3-10.9 0.3-5.6-0.1-7.5-2-11.2-1.4-2.5-4.4-5.9-6.7-7.5-3.5-2.5-5.5-3.1-10.9-3.3-5.6-0.3-7.5 0.1-11.2 2.1zm-704 1c-1.9 0.7-4.7 2-6.3 3-1.5 0.9-3.9 3.6-5.5 5.9-1.9 3-2.8 5.8-3 9.7-0.3 3.4 0.2 7.2 1.1 9.6 0.9 2.2 3.4 5.7 5.6 7.7 2.3 2.1 5.8 4.2 7.8 4.8 2.1 0.5 5.4 1 7.3 1 1.9 0 5.3-0.9 7.5-1.9 2.2-1 5-2.8 6.2-4 1.3-1.1 2.9-3.1 3.7-4.4 0.8-1.2 1.9-4.2 2.5-6.7 0.7-3.1 0.6-6-0.1-9.5-0.9-3.8-2.2-6.1-5.7-9.6-3.3-3.2-6-4.9-9.4-5.7-2.6-0.7-5.5-1.2-6.5-1.2-0.9 0.1-3.3 0.6-5.2 1.3zm684.1 42.1c-2.4 1.3-5.8 4.3-7.6 6.7-1.8 2.6-3.4 6.3-3.8 8.9-0.4 2.5-0.3 6.1 0.1 8 0.5 1.9 1.8 5.1 2.9 7 1.2 1.9 4 4.8 6.4 6.5 3.2 2.2 5.6 3.1 9.8 3.4 3.1 0.2 7.4-0.2 9.6-1 2.2-0.7 5.8-3.1 8-5.3 2.6-2.7 4.6-6 5.7-9.6 1.6-5 1.6-6 0.3-10.5-0.8-2.8-3-6.8-4.7-8.9-1.8-2.2-5.1-4.8-7.3-5.8-2.3-1-6.4-1.8-9.5-1.8-4 0-6.8 0.7-9.9 2.4zm-667.1 1.7c-1.4 0.6-3.7 1.9-5.3 3-1.5 1-3.9 4-5.4 6.6-2.1 3.7-2.7 6.1-2.7 10.3 0.1 3.5 0.8 7 2.1 9.5 1.1 2.2 3.8 5.5 5.9 7.2 2.1 1.8 5.9 3.8 8.4 4.4 2.5 0.6 6.1 0.8 8 0.4 1.9-0.4 5.1-1.5 7-2.5 1.9-1 4.5-2.9 5.6-4.2 1.2-1.2 2.9-3.9 3.9-5.8 1.3-2.6 1.6-5.2 1.4-10.2-0.3-5.4-1-7.4-3.4-10.9-1.7-2.4-5-5.3-7.5-6.6-3.2-1.7-6-2.3-10-2.3-3 0.1-6.6 0.6-8 1.1zm701.2-0.3c-0.7 0.4-1.2 1.8-1 3.2 0.2 1.6 1 2.6 2.3 2.8 1.1 0.2 2.6-0.4 3.2-1.2 0.9-1.1 1-2.2 0.3-3.6-0.6-1.1-1.6-2-2.3-2-0.6 0-1.8 0.4-2.5 0.8zm-722.7 3.9c-0.3 1-0.2 2.6 0.2 3.6q0.8 1.9 3.2 1.5c1.3-0.2 2.9-1 3.5-2 0.8-1.2 0.7-2-0.4-3.3-0.8-0.9-2.5-1.6-3.7-1.5-1.2 0-2.5 0.8-2.8 1.7zm720.9 27.5c-0.3 0.7-0.4 2.2-0.2 3.3 0.2 1.5 1.1 2 3.2 2 1.6 0 3.4-0.7 4-1.7 0.8-1.2 0.7-2-0.4-3.3-0.8-0.9-2.5-1.6-3.8-1.5-1.2 0-2.5 0.6-2.8 1.2zm-719.4 2c-0.8 0.7-1.3 1.9-1.2 2.7 0 0.9 0.8 2.2 1.7 2.8 0.8 0.7 2.4 1.1 3.5 0.8 1.3-0.3 2-1.3 2-2.8 0-1.2-0.5-2.8-1.2-3.5-0.7-0.7-1.8-1.2-2.4-1.2-0.5 0-1.6 0.5-2.4 1.2zm708.4 8.3c-1.6 0.8-4 2.9-5.2 4.7-1.3 2-2.2 4.9-2.2 7.3 0 2.2 0.9 5.4 2 7.2 1.1 1.8 3.6 4 5.5 4.8 1.9 0.8 4.4 1.5 5.5 1.5 1.1 0 3.7-0.8 5.7-1.8 2-0.9 4.5-3.1 5.5-4.7 1-1.7 1.8-4.8 1.8-7 0-2.2-0.9-5.4-2-7.3-1.1-1.7-3.6-3.9-5.5-4.7-1.9-0.8-4.5-1.5-5.8-1.5-1.2 0.1-3.6 0.7-5.3 1.5zm-704.2 3.5c-1.7 1.1-3.9 3.7-4.8 5.7-0.9 2.2-1.3 5.1-1 6.8 0.3 1.6 1.4 4.2 2.6 5.7 1.1 1.6 3.3 3.5 5 4.3 1.6 0.8 4.1 1.5 5.5 1.5 1.4 0 3.5-0.5 4.7-1.1 1.3-0.6 3.3-2.1 4.6-3.3 1.3-1.1 2.7-3.8 3.2-5.9 0.8-3 0.6-4.6-1-8.2-1.3-2.9-3.1-5-5-6-1.7-0.8-4.7-1.5-6.8-1.5-2 0-5.2 0.9-7 2zm-9.2 23.7c-0.8 0.3-2.1 1.3-2.8 2.2-0.7 0.9-1.2 2.5-1.2 3.6-0.1 1.1 0.7 2.8 1.7 3.7 1 1 2.9 1.8 4.3 1.8 1.4 0 3.3-0.7 4.2-1.7 1-1 1.8-2.8 1.8-4.1 0-1.3-1.1-3-2.8-4.2-1.5-1.2-2.9-2-3.2-2-0.3 0.1-1.2 0.4-2 0.7zm715.4 3.7c-1.6 0.8-4 3-5.3 4.8-1.7 2.6-2.1 4.2-1.7 7.8 0.3 3.2 1.3 5.3 3.3 7.3 1.9 2 4.2 3 7.3 3.3 3.6 0.5 5.2 0.1 8-1.8 2.1-1.4 4-3.9 4.9-6.3 1.3-3.5 1.3-4.5 0-7.9-0.8-2.2-2.5-4.8-3.9-5.8-1.4-1-4.1-2.1-6-2.3-2-0.3-4.8 0.1-6.6 0.9zm-700.1 4.3c-1.7 0.9-4 3.1-5.2 4.7-1.3 1.9-2.1 4.7-2.1 7.1 0 2.2 0.8 5.3 1.8 7 1 1.6 3.6 3.8 5.8 4.9 2.7 1.3 5 1.7 7.4 1.2 1.9-0.3 4.5-1.3 5.7-2.1 1.3-0.8 3.1-2.7 4-4.3 1-1.5 1.7-4.5 1.7-6.7 0-2.2-0.7-5.2-1.7-6.8-0.9-1.5-2.7-3.4-4-4.2-1.2-0.8-4-1.8-6.2-2-2.7-0.4-5 0-7.2 1.2zm-0.3 30.5c-0.8 0.7-1.3 1.9-1.2 2.7 0.1 0.9 0.7 2.2 1.4 2.9 0.7 0.7 2.1 1.2 3 1.2 1 0 2.2-0.9 2.8-2 0.5-1.1 1-2.2 1-2.5 0-0.3-0.7-1.2-1.5-2-0.8-0.8-2.1-1.5-2.8-1.5-0.7 0-1.9 0.5-2.7 1.2zm-1.5 35.7c-1.7 1-4.2 3.4-5.5 5.3-1.4 1.9-2.6 5.2-2.8 7.8-0.3 3.2 0.1 5.7 1.7 8.7 1.1 2.4 3.6 5.3 5.3 6.5 1.9 1.3 5.4 2.4 8.3 2.7 3.8 0.3 5.9-0.1 9-1.8 2.2-1.2 5.1-3.8 6.5-5.8 1.9-2.7 2.5-4.9 2.5-8.8 0-3.8-0.7-6.1-2.6-9.1-1.4-2.1-4.2-4.7-6.2-5.7-2-0.9-5.8-1.7-8.5-1.7-2.9 0-5.9 0.7-7.7 1.9zm689.6-0.2c-1.8 1-4.2 3.4-5.2 5.3-1.1 1.9-1.9 4.8-1.9 6.5 0 1.6 1 4.6 2.2 6.5 1.3 1.9 4.1 4.3 6.3 5.4 2.7 1.2 5.1 1.7 7.2 1.2 1.8-0.3 4.9-2.1 6.9-3.9 2.8-2.5 3.7-4.1 4-7.7 0.4-3.3 0-5.4-1.4-8-1.1-1.9-3.5-4.3-5.3-5.3-1.9-0.9-4.8-1.7-6.4-1.7-1.7 0-4.5 0.8-6.4 1.7zm-654.1 16.6c-1.9 0.7-4.5 2.6-5.7 4.2-1.2 1.7-2.9 4.7-3.7 6.7-0.9 2.1-1.6 4.8-1.6 6 0 1.3 0.5 4 1 6 0.6 2.1 2.5 5.4 4.2 7.4 1.8 1.9 5.3 4.2 7.8 5.1 3.1 1.1 5.9 1.4 9 0.9 2.5-0.4 6-1.7 7.9-2.9 1.9-1.2 4.4-4 5.7-6.2 1.6-2.8 2.4-5.6 2.4-9.3 0-3.2-0.7-6.7-1.9-9-1-2-2.7-4.4-3.7-5.3-1.1-0.9-3.4-2.4-5.2-3.3-1.7-0.9-5.3-1.6-8-1.6-2.6 0.1-6.3 0.6-8.2 1.3zm628.4 0.6c-1.2 0.4-3.5 2.2-5 4-2.3 2.5-3 4.4-3.2 8.4-0.2 3.9 0.2 6 1.7 8.4 1.2 1.8 3.1 4 4.3 4.8 1.3 0.8 3.9 1.8 5.8 2.1 2.5 0.5 4.8 0.1 8.2-1.5 4-1.7 5.2-2.9 6.9-6.9 1.6-3.5 2-5.6 1.4-8.2-0.4-1.9-1.6-4.7-2.6-6.3-1-1.5-3.3-3.4-4.9-4.2-1.7-0.8-4.7-1.5-6.8-1.4-2 0-4.7 0.4-5.8 0.8zm4.2 33.3c-1 0.7-1.6 2.2-1.4 3.2 0.1 1 1.1 2.4 2 3 1.3 0.8 2.3 0.8 3.5 0 1-0.6 1.8-1.9 1.9-2.9 0-1-0.7-2.5-1.5-3.2-0.9-0.7-1.8-1.3-2.1-1.3-0.3 0-1.4 0.6-2.4 1.2zm-624.7 7.9c-0.9 0.6-2.1 2.2-2.8 3.5-0.8 1.8-0.8 3 0 4.6 0.7 1.3 1.7 2.6 2.3 3 0.6 0.4 2.4 0.8 4.1 0.7 1.7 0 3.5-0.7 4.2-1.7 0.7-0.9 1.3-2.8 1.3-4.2 0-1.4-0.5-3.3-1.2-4.2-0.7-0.9-2.4-1.9-3.8-2.2-1.4-0.3-3.2-0.1-4.1 0.5zm573.3 30.9c-1.7 1.1-4.1 3.5-5.2 5.2-1.1 1.8-2 4.9-2 6.8 0 1.9 0.8 5.1 1.8 7 0.9 1.9 3.3 4.5 5.2 5.8 2.1 1.3 5 2.2 7.2 2.2 2.1 0 5-0.6 6.5-1.4 1.6-0.8 3.9-2.6 5.3-4.1 1.8-2 2.6-4.1 2.9-7.8 0.2-3.8-0.2-6.1-1.5-8.5-1.1-1.9-3.3-4.2-4.9-5.3-1.7-1.1-4.9-1.8-7.5-1.9-2.8 0-5.7 0.8-7.8 2zm26.4 0.2c-1 0.7-1.6 2.2-1.4 3.2 0.1 1 1.1 2.4 2 3 1.3 0.8 2.3 0.8 3.5 0 1-0.6 1.8-1.9 1.9-2.9 0-1-0.7-2.5-1.5-3.2-0.9-0.7-1.8-1.3-2.1-1.3-0.3 0-1.4 0.6-2.4 1.2zm-582.9 4.1c-2.1 1.2-4.9 4-6.2 6.2-1.7 2.8-2.5 5.5-2.5 8.7 0 2.7 0.6 6.3 1.3 8 0.8 1.8 2.8 4.5 4.5 6 1.8 1.6 5.1 3.3 7.4 4 3.3 0.9 5.3 0.9 8.8 0 3-0.8 5.8-2.6 8.2-5.2 2.3-2.4 4.2-5.7 4.9-8.3 0.6-2.3 0.7-5.6 0.4-7.2-0.4-1.7-1.8-4.7-3.1-6.8-1.3-2-4.2-4.6-6.4-5.7-2.3-1.2-6-2-8.8-2-3.1 0-6 0.8-8.5 2.3zm43.1 12.6c-1.5 0.4-4.1 1.5-5.7 2.4-1.7 1-4.3 3.6-5.9 5.9-2.2 3.4-2.7 5.3-2.7 10.2 0 4.8 0.6 6.9 2.5 10 1.4 2.2 3.6 4.7 5 5.7 1.4 0.9 4.5 2.3 7 2.9 3.4 1 5.5 1 8.7 0.1 2.4-0.6 5.9-2.6 8-4.4 2-1.7 4.2-4.7 5-6.5 0.7-1.7 1.3-5.2 1.3-7.7 0-2.5-0.5-5.7-1.1-7.3-0.5-1.5-2.2-4-3.7-5.5-1.5-1.6-3.8-3.5-5.2-4.2-1.4-0.7-4.3-1.5-6.5-1.8-2.2-0.3-5.2-0.2-6.7 0.2zm482 4.9c-2.7 0.9-6.4 2.9-8.3 4.4-1.9 1.6-4.4 4.6-5.5 6.8-1.1 2.2-2.3 5.9-2.6 8.2-0.4 2.8-0.1 6 1 9.3 0.9 3.1 3 6.4 5.3 8.6 2.1 2 5.3 4.4 7 5.3 1.8 0.9 5.8 1.6 8.8 1.6 3 0 7.2-0.7 9.2-1.6 2.1-0.8 5.1-2.7 6.6-4.2 1.6-1.5 3.7-4.3 4.7-6.2 1-1.9 2.1-5.3 2.4-7.5 0.4-2.6 0.1-5.8-0.9-9-0.8-2.8-2.8-6.6-4.3-8.4-1.5-1.9-5-4.5-7.7-5.7-2.8-1.2-6.4-2.5-8-2.7-1.7-0.3-5.1 0.2-7.7 1.1zm-437.8 3.2c-1.9 0.5-5.3 2.2-7.5 3.8-2.2 1.5-5.3 4.8-6.8 7.3-2.1 3.3-2.8 5.8-2.9 9.9-0.1 3 0.1 6.6 0.4 8 0.3 1.4 1.2 3.8 2.1 5.5 0.8 1.6 2.8 4.2 4.4 5.6 1.5 1.5 4.4 3.5 6.3 4.5 2.3 1.2 5.6 1.8 10 1.8 4.7 0 7.6-0.6 10.5-2.1 2.2-1.2 5.2-3.4 6.6-5 1.5-1.5 3.5-4.4 4.5-6.3 1.2-2.3 1.8-5.6 1.8-10 0-4.4-0.6-7.7-1.8-10-1-1.9-3-4.8-4.5-6.3-1.4-1.6-4-3.6-5.6-4.4-1.7-0.9-3.9-1.8-5-2-1.1-0.2-3.6-0.5-5.5-0.8-1.9-0.2-5.1 0-7 0.5zm478.4 6.9c-1.2 0.4-3.1 1.9-4.3 3.2-1.1 1.3-2.4 4-2.7 5.9-0.4 2.3-0.1 4.7 1 7 0.8 1.9 2.9 4.3 4.6 5.2 1.6 1 4.8 1.8 7.1 1.8 3.4 0 4.7-0.6 7.5-3.5 2.9-3 3.4-4.2 3.4-8.3 0-2.6-0.7-5.7-1.5-7-0.8-1.2-2.9-2.9-4.5-3.7-1.7-0.8-4.2-1.5-5.8-1.4-1.5 0-3.7 0.4-4.8 0.8zm-92.9 4c-2.2 1-5.2 2.9-6.6 4.2-1.4 1.3-3.5 4.3-4.7 6.6-1.6 3.1-2.2 6.1-2.2 10.5 0 4.7 0.6 7.5 2.3 10.8 1.3 2.5 4.1 5.9 6.3 7.6 2.1 1.7 6.2 3.6 9.1 4.2 4.1 0.9 6.5 0.9 10.5 0 3-0.6 7.1-2.5 9.2-4.2 2.2-1.7 5-5.1 6.2-7.6 1.7-3.2 2.3-6.2 2.3-10.5 0.1-3.7-0.6-7.5-1.8-10-1-2.2-3.1-5.3-4.7-6.9-1.6-1.6-4.7-3.7-6.9-4.7-2.3-1.1-6.3-1.9-9.5-1.9-3.2 0-7.2 0.8-9.5 1.9zm-415.2 20.8c-0.7 0.3-2 1.9-2.9 3.6-1.3 2.7-1.4 3.6-0.2 6.1 0.7 1.6 2.1 3.3 3 3.7 1 0.5 2.6 0.9 3.5 0.9 1 0.1 3-0.8 4.5-2 2.1-1.5 2.8-2.8 2.8-5.5 0-2.7-0.7-4-2.8-5.5-1.5-1.2-3.6-2-4.7-2-1.1 0.1-2.6 0.4-3.2 0.7zm58.1 11.1c-2.9 1.6-6.4 4.8-8.4 7.7-2.8 3.9-3.6 6-3.8 10.4-0.3 3.4 0.2 7.2 1.1 9.6 0.9 2.3 3.6 5.8 6.4 8.3 3.4 2.9 6.3 4.6 9.8 5.3 2.7 0.6 6.6 0.8 8.5 0.4 1.9-0.4 5.1-1.5 7-2.5 1.9-0.9 4.9-3.5 6.7-5.6 1.8-2.1 3.8-5.9 4.4-8.4 0.7-2.5 0.9-6.5 0.6-9-0.3-2.5-1.9-6.5-3.4-8.9-2-3.2-4.4-5.3-8.3-7.3-4-2.1-6.9-2.9-10.6-2.8-3.7 0-6.4 0.8-10 2.8zm393.6 0.1c-0.8 0.5-2.1 2.1-2.9 3.7-1.1 2.5-1.1 3.4 0 6.3 0.8 1.8 2.2 3.8 3.1 4.2 1 0.5 3.4 0.9 5.3 0.9 2.7 0 4-0.7 5.5-2.8 1.2-1.5 2.1-3.8 2.1-5.2 0-1.4-0.9-3.7-2.1-5.3-1.6-2.1-2.8-2.7-5.8-2.7-2 0-4.4 0.4-5.2 0.9zm-434.5 3.7c-0.5 0.4-0.8 1.6-0.7 2.6 0.1 1.1 1 1.8 2.2 1.8 1.5 0 1.9-0.6 1.7-2.2-0.1-1.2-0.7-2.3-1.3-2.5-0.6-0.2-1.4 0-1.9 0.3zm8.7 5.7c-1.2 0.7-3.2 2.8-4.4 4.7-1.6 2.7-1.9 4.2-1.3 6.5 0.4 1.6 2 4.2 3.6 5.7 1.8 1.8 4 2.8 5.9 2.8 1.6 0 4.3-0.7 6-1.5 1.6-0.8 3.4-2.4 4-3.5 0.5-1.1 1-3.7 1-5.8 0-2-0.8-4.7-1.8-5.8-0.9-1.2-2.7-2.7-4-3.3-1.2-0.6-3.2-1.1-4.5-1.1-1.2 0-3.2 0.6-4.5 1.3zm349.8 10.5c-3 1.8-5.3 4.3-6.7 7.2-1.4 2.8-2.3 6.4-2.3 9.2 0 2.8 0.8 6.4 1.9 8.5 1 2.1 3 4.8 4.3 6 1.2 1.2 4 2.9 6 3.7 2.1 0.9 5.4 1.6 7.3 1.6 1.9 0 5.2-0.7 7.2-1.6 2.1-0.8 4.9-2.5 6.2-3.7 1.3-1.2 3.2-4 4.2-6.2 1-2.2 1.9-6 1.9-8.5 0-2.7-0.9-6.3-2.3-9-1.4-2.9-3.7-5.4-6.7-7.2-3.6-2.3-5.6-2.8-10.5-2.8-4.8 0-6.9 0.6-10.5 2.8zm46-1.2c-1.9 0.8-4.3 2.3-5.4 3.2-1 0.9-2.7 3.4-3.7 5.4-1 2.1-1.9 5.8-1.9 8.3 0 2.5 0.6 6 1.3 7.7 0.8 1.8 3 4.8 5 6.5 2.1 1.8 5.6 3.8 7.9 4.4 3.3 0.9 5.4 0.9 8.8-0.1 2.5-0.6 5.7-2 7.2-3.1 1.6-1 3.6-3.6 4.7-5.7 1-2 2.1-5.2 2.5-7 0.3-1.8 0-5.2-0.9-8-0.8-2.6-2.7-5.9-4.2-7.4-1.5-1.5-4.5-3.4-6.6-4.2-2-0.9-5.4-1.6-7.5-1.6-2 0.1-5.3 0.8-7.2 1.6zm27.3 1.9c-0.5 0.9-0.3 2.1 0.4 2.8 0.7 0.7 1.9 0.9 2.8 0.4 0.8-0.4 1.4-1.5 1.2-2.5-0.1-0.9-1-1.8-1.9-2-0.9-0.2-2 0.4-2.5 1.3zm-351.8 10.8c-1.7 0.7-4 1.8-5.3 2.4-1.2 0.7-3.4 3.4-4.9 6-2.1 3.6-2.7 6.1-2.7 9.8 0.1 2.7 0.8 6.3 1.7 8 0.8 1.6 2.8 4.2 4.4 5.7 1.5 1.5 4 3.2 5.5 3.7 1.6 0.6 4.8 1.1 7.3 1.1 2.5 0 6-0.6 7.7-1.3 1.8-0.8 4.8-3 6.5-5 1.8-2.1 3.8-5.6 4.4-8 0.6-2.3 0.7-5.6 0.3-7.2-0.3-1.7-1.5-4.7-2.5-6.8-1.1-2-3.1-4.5-4.7-5.5-1.5-1.1-4.3-2.4-6.2-3.1-1.9-0.6-4.6-1.1-6-1-1.4 0-3.9 0.6-5.5 1.2zm187.8 7c-1.8 0.7-4.8 2.3-6.5 3.8-1.8 1.4-4.3 4.5-5.5 7-1.5 2.8-2.3 6.2-2.3 9.4 0 2.7 0.9 6.8 1.9 9 1 2.2 3.4 5.5 5.4 7.2 2.1 1.8 4.9 3.8 6.4 4.4 1.6 0.6 5.3 1.1 8.3 1.1 3.8 0 6.8-0.7 9.9-2.4 2.4-1.3 5.7-4.3 7.5-6.7 2.5-3.5 3.2-5.5 3.4-10.5 0.3-3.9-0.2-7.6-1.2-10.4-1-2.5-3.3-5.6-5.9-7.7-2.3-2-5.8-4-7.7-4.5-1.9-0.6-5.1-1-7-0.9-1.9 0-5 0.6-6.7 1.2zm-95.8 1.9c-1.7 0.6-4.5 2.1-6.3 3.4-1.7 1.3-4.2 4.3-5.4 6.6-1.6 3-2.2 6.1-2.2 10.3 0 4.2 0.6 7.3 2.2 10.2 1.2 2.4 3.7 5.4 5.4 6.7 1.8 1.3 4.9 2.8 6.8 3.5 1.9 0.6 5.2 1.1 7.2 1.1 2.1 0 5.5-0.7 7.5-1.6 2.1-0.8 5.1-2.7 6.7-4.2 1.6-1.5 3.7-4.5 4.7-6.7 1-2.2 1.9-6.2 1.9-9 0-2.8-0.9-6.8-1.9-9-1-2.2-3.1-5.2-4.7-6.7-1.6-1.5-4.6-3.4-6.7-4.2-2-0.9-5.6-1.6-8-1.5-2.3 0-5.6 0.5-7.2 1.1zm-115.1 6c-0.4 0.7-0.3 2.1 0 3 0.3 1 1.5 1.8 2.6 1.8 1.1 0 2.2-0.7 2.5-1.5 0.3-0.8-0.1-2.2-0.8-3-0.6-0.9-1.8-1.6-2.5-1.5-0.7 0-1.5 0.6-1.8 1.2zm284.6 6.8c-1.1 1.1-2.3 3.2-2.6 4.7-0.4 2 0 3.6 1.3 5.3 1.3 1.6 3.2 2.6 5.4 2.8 2.2 0.2 4.2-0.3 5.7-1.5 1.6-1.2 2.3-2.9 2.4-5.3 0-2.6-0.6-4.1-2.6-5.8-1.4-1.2-3.7-2.2-5.1-2.2-1.4 0-3.4 0.9-4.5 2zm-234.5 7.6c-0.9 0.8-1.6 2.2-1.6 3 0.1 0.8 1 2.3 2.1 3.4 1.1 1.1 2.3 2 2.7 2 0.5 0 1.8-0.7 3-1.5 1.3-0.8 2.3-2.5 2.3-3.8 0-1.2-0.5-2.8-1.2-3.5-0.7-0.7-2.3-1.2-3.5-1.2-1.2 0-2.9 0.7-3.8 1.6zm198 1.9c-1.7 0.8-3.7 2.6-4.5 4.1-0.8 1.5-1.5 4.1-1.4 5.8 0.1 1.7 0.8 4.2 1.7 5.6 0.8 1.4 2.8 3.1 4.4 3.8 1.7 0.9 4.3 1.2 6.5 0.8 2.5-0.4 4.6-1.6 6.3-3.6 1.7-2 2.5-4.2 2.5-6.8 0-2-0.7-4.7-1.5-6-0.8-1.2-2.9-2.9-4.5-3.7-1.7-0.8-3.8-1.5-4.8-1.5-0.9 0-3.1 0.7-4.7 1.5zm-164 3.9c-1.8 0.8-3.7 2.8-4.9 5.2-1.5 3.3-1.7 4.5-0.7 7.6 0.7 2.5 2.2 4.5 4.3 5.9 2.4 1.5 4.4 1.9 7.3 1.5 2.8-0.3 4.8-1.4 6.7-3.5 1.8-1.9 2.8-4.2 2.8-6.1 0-1.7-0.5-4.1-1-5.5-0.6-1.4-2.5-3.4-4.3-4.5-1.7-1.1-4.1-2-5.2-2-1.1 0.1-3.4 0.7-5 1.4zm65.7 1.6c-1.7 1.1-3.7 2.9-4.2 4-0.6 1.1-1 4-1 6.5 0 3.5 0.6 5.1 2.7 7.4 1.6 1.6 4.4 3.2 6.3 3.6 2.5 0.5 4.6 0.2 7.4-1.1 2.1-1.1 4.5-3.1 5.2-4.7 0.8-1.5 1.4-4.1 1.4-5.7 0-1.7-0.7-4.4-1.5-6-0.8-1.7-2.9-3.7-4.5-4.5-1.7-0.8-4.2-1.5-5.8-1.5-1.5 0-4.2 0.9-6 2zm28.6-0.2c-1.6 0.9-3.2 2.8-3.7 4.2-0.6 1.4-1.1 3.2-1.2 4-0.1 0.8-0.1 2.5 0 3.7 0 1.3 1.7 3.9 3.6 5.8 3 3 4.2 3.5 8 3.5 3.5 0 5.2-0.6 7.6-2.8 2.4-2.1 3.2-3.8 3.8-7.8 0.6-5 0.5-5.3-3.2-8.8-3.1-3-4.4-3.6-8-3.6-2.3 0-5.4 0.8-6.9 1.8zm-41.8 16.2q0 2 1.7 1.7c1-0.1 1.8-1 1.8-2 0-1-0.7-1.7-1.7-1.7-1.1 0-1.8 0.8-1.8 2zm31 6c-1.1 1.1-2 2.3-2 2.7-0.1 0.5 0.7 1.9 1.7 3.2 1.4 1.9 2.4 2.2 4.5 1.7 2-0.4 3-1.4 3.4-3.4 0.5-2.1 0.2-3.1-1.7-4.5-1.3-1-2.7-1.8-3.2-1.7-0.4 0-1.6 0.9-2.7 2z"/><path class="k" d="m417 159.9c-3.6 0.9-8.3 2.6-10.5 3.8-2.2 1.1-6 4-8.4 6.4-2.4 2.4-5.5 6.6-6.8 9.4-1.4 2.7-2.6 5.9-2.7 7-0.1 1.1-0.5 2.4-0.8 3-0.3 0.5-0.9 2.3-1.3 4-0.4 1.9 0.1 6 1.4 11 1.4 5.3 3.4 9.8 6 13.5 2.1 3 6.2 7.2 9.2 9.2 3.4 2.3 8.4 4.5 13.4 5.8 7 1.9 8.6 2 13 1 2.7-0.7 7.2-2.2 9.8-3.4 2.6-1.1 4.8-2.4 4.7-2.9 0-0.4 0.4-0.5 1-0.2 0.5 0.3 1.6-0.3 2.2-1.3 0.7-1 2.1-2.1 3-2.5 1-0.4 1.8-1.4 1.8-2.2 0-0.8 0.7-1.7 1.5-2 0.8-0.3 2.6-2.6 3.9-5.3 1.3-2.6 3.1-7.6 4-11.2 1.5-6.1 1.5-6.9-0.1-13.3-1-3.7-2-6.7-2.3-6.7-0.3 0-0.5-0.6-0.5-1.4 0-0.7-1.6-3.7-3.5-6.5-2-3-6-6.9-9.3-9.2-3.1-2.1-6.2-3.7-6.7-3.4-0.6 0.3-1 0.1-1-0.4 0-0.5-2.3-1.4-5.2-2.1-2.9-0.6-6.2-1.3-7.3-1.5-1.1-0.2-4.9 0.4-8.5 1.4zm165 134.7c-3 0.8-7.4 2.6-9.8 3.9-2.3 1.4-5.8 4.2-7.8 6.2-1.9 2.1-4.6 6-6 8.8-1.3 2.7-2.9 7.5-3.4 10.5-0.8 4-0.8 7.3 0.1 12 0.6 3.6 2.2 8.6 3.5 11.2 1.3 2.7 4.4 6.8 6.9 9.3 2.5 2.5 7.1 5.7 10.2 7.2 5.1 2.5 7 2.8 15.8 2.8 8.8 0 10.6-0.3 15.5-2.7 3-1.5 7.7-4.9 10.3-7.5 2.6-2.6 6-7.3 7.5-10.3 2.1-4.3 2.7-7.4 3-14 0.3-6.8 0-9.6-1.7-14-1.1-3-3.4-7.4-5.1-9.8-1.6-2.3-5.1-5.8-7.8-7.7-2.6-1.9-6.7-4.1-9.2-5-2.5-0.9-7.2-1.8-10.5-2-3.7-0.3-8.1 0.1-11.5 1.1zm-115 237.9c-3 0.8-7.2 2.2-9.3 3.2-2.1 1-3.7 2.1-3.7 2.5 0 0.5-0.5 0.6-1 0.3-0.6-0.3-1.6 0.3-2.3 1.4-0.6 1-1.6 1.8-2.1 1.7-0.5 0-1.4 0.8-2 1.9-0.6 1.1-1.7 2.3-2.4 2.7-0.6 0.5-2.3 2.9-3.6 5.5-1.3 2.7-3.1 7.7-4 11.3-1.5 6-1.5 7 0 13 0.9 3.6 2.5 8.3 3.6 10.5 1.2 2.2 4.4 6.3 7.2 9.1 2.8 2.8 6.9 6.1 9.1 7.2 2.2 1.1 6 2.5 8.5 3.2 2.5 0.7 6.7 1.2 9.5 1.1 2.7-0.1 5.4-0.5 6-1.1 0.5-0.5 1.3-0.8 1.7-0.5 0.5 0.3 3.1-0.5 5.8-1.8 2.8-1.2 5-2.7 5-3.2 0-0.6 0.3-0.7 0.7-0.3 0.4 0.4 2.1-0.3 3.8-1.6 1.6-1.3 4.7-4.8 6.7-7.7 2-3 4.4-8.1 5.3-11.4 0.9-3.3 1.4-7.4 1.1-9-0.5-2.3-0.4-2.6 0.3-1 0.5 1.1 1 1.5 1 1 0.1-0.6-0.4-3.6-1.1-6.8-0.7-3.1-1.5-5.7-1.8-5.7-0.3 0-0.6-1-0.8-2.2-0.1-1.3-1.1-3.8-2.2-5.6-1.1-1.7-2.5-3.2-3-3.2-0.6 0-0.8-0.3-0.5-0.8 0.2-0.4-0.8-1.9-2.3-3.5-1.5-1.5-3.1-2.4-3.5-2-0.4 0.5-0.7 0.2-0.7-0.5 0-0.6-1.5-2.1-3.3-3.2-1.7-1-4.1-2.1-5.2-2.3-1.1-0.2-2.7-0.7-3.5-1-0.8-0.4-3.3-1.1-5.6-1.7-2.3-0.5-4.5-1-5-0.9-0.5 0-3.4 0.7-6.4 1.4z"/><path class="l" d="m575.4 169.5c-2.7 0.6-6.7 2-8.8 3.1-2.2 1-5.7 3.7-7.8 5.9-2.2 2.2-4.9 6-6.1 8.5-1.8 3.6-2.2 6.3-2.2 13.5 0 8.1 0.3 9.5 3 14.4 1.6 2.9 4.6 6.7 6.5 8.4 1.9 1.7 6 4.2 9 5.5 4.8 2.2 6.6 2.4 13.5 2 6.4-0.3 9.1-1 13.4-3.4 3-1.6 7.1-4.9 9.1-7.4 2-2.5 4.4-7 5.4-10 1.4-4 1.7-7.3 1.4-12-0.3-4.2-1.4-8.3-3.1-11.5-1.4-2.8-4.3-6.6-6.4-8.6-2.1-2-5.6-4.6-7.8-5.7-2.2-1.1-6.3-2.4-9.1-2.9-3.5-0.6-6.7-0.6-10 0.2zm-410.5 274.8c-3.6 1.2-8.5 3.5-10.8 5.2-2.3 1.6-5.3 4.6-6.6 6.5-1.3 1.9-3.2 5.3-4.1 7.5-1 2.5-1.7 6.7-1.7 11 0 5.1 0.6 8.4 2.2 12 1.2 2.7 3.2 6.3 4.5 8 1.2 1.6 4.5 4.4 7.2 6.2 2.7 1.8 7.6 3.8 10.9 4.6 4.8 1.1 7.1 1.1 11.5 0.2 3-0.6 7.3-2 9.5-3.2 2.2-1.1 6.2-4.5 8.8-7.4 2.6-3 5.4-7.4 6.3-9.9 0.8-2.5 1.4-7.4 1.4-11 0-5.1-0.6-7.8-2.9-12.5-1.5-3.3-3.9-7.1-5.2-8.6-1.3-1.4-4.4-3.7-6.9-5.1-2.5-1.5-7.2-3.4-10.5-4.2-3.3-0.9-6.2-1.5-6.5-1.5-0.3 0-3.5 1-7.1 2.2zm521.1 62.6c-1.4 0.4-4.3 1.7-6.5 2.8-2.2 1.1-5.5 3.6-7.3 5.4-1.9 1.9-4.6 5.9-6 8.9-2.2 4.4-2.7 6.9-2.7 13 0 6.1 0.5 8.6 2.7 13 1.4 3 4.1 7 6 8.9 1.8 1.8 5.5 4.5 8.3 6 4.3 2.2 6.2 2.6 14 2.6 7.8 0 9.7-0.4 14-2.6 2.7-1.5 6.8-4.6 8.9-7 2.2-2.4 4.9-6.4 6-8.9 1.4-3.2 2-6.7 2-12 0.1-6.1-0.4-8.5-2.6-13-1.4-3-4.5-7.2-6.7-9.3-2.3-2-6-4.7-8.4-5.9-2.9-1.5-6.5-2.2-11.7-2.4-4.1-0.2-8.6 0-10 0.5zm-538 2c-3 1-6.9 2.5-8.5 3.3-1.7 0.8-5.2 4-7.8 6.9-2.6 3-5.4 7.4-6.3 9.9-0.8 2.5-1.4 7.4-1.4 11 0 5 0.6 7.9 2.8 12.5 1.8 3.9 4.6 7.5 7.8 10.3 2.7 2.3 7.1 5 9.9 5.9 2.7 1 7.5 1.7 10.5 1.7 3 0 7.7-0.7 10.5-1.7 2.7-0.9 7-3.4 9.5-5.5 2.5-2.2 5.8-6.3 7.5-9.3 2.7-4.9 3-6.3 3-14.4 0-7.5-0.4-9.8-2.4-13.5-1.3-2.5-4-6.2-6-8.3-2-2.1-5.2-4.7-7.1-5.7-1.9-0.9-6.1-2.5-9.3-3.4-3.1-0.9-6-1.6-6.5-1.5-0.4 0-3.2 0.9-6.2 1.8z"/><path class="m" d="m502.5 294.9c-2.2 0.5-6.3 1.8-9 3-2.8 1.2-7 3.9-9.4 5.9-2.5 2-5.9 5.9-7.7 8.7-1.7 2.7-3.9 7.5-4.8 10.5-0.9 3-1.6 8.3-1.6 11.7 0 3.5 0.8 8.9 1.8 12 1 3.2 3.2 7.9 5 10.5 1.8 2.7 5.3 6.5 7.9 8.6 2.7 2.1 7.4 4.8 10.5 6 3.2 1.2 8.4 2.5 11.5 2.8 3.9 0.4 7.8 0.1 12-1 3.5-0.9 8-2.5 10-3.5 2.1-1 6-3.9 8.7-6.2 3.2-3 6-6.9 8.5-11.8 3.4-7.1 3.6-8 3.6-17.5 0-9-0.3-10.8-2.8-16.1-1.6-3.3-4.3-7.8-6-9.9-1.8-2.2-5.2-5.3-7.7-7-2.5-1.6-6.6-3.8-9.3-4.8-2.6-1-7.5-2-11-2.2-3.4-0.3-8-0.1-10.2 0.3zm1.7 162.2c-2.8 0.5-7.8 2.2-11 3.8-3.1 1.6-7.7 4.8-10.1 7.2-2.4 2.4-5.4 6.2-6.7 8.4-1.3 2.2-3.3 7.6-4.4 12l-2 8c3.1 12.4 5.3 18 6.7 20.5 1.5 2.5 4.7 6.5 7.3 8.8 2.5 2.4 6.7 5.5 9.5 6.8 2.7 1.3 7.9 2.9 11.5 3.6 4.9 0.8 8 0.8 12.5-0.1 3.3-0.6 8.7-2.4 12-4 3.8-1.8 7.8-4.9 10.8-8.2 2.7-3 6-7.9 7.5-10.9 1.9-4.1 2.7-7.6 3-14 0.4-6.9 0.1-9.7-1.7-15-1.1-3.6-3.8-8.8-5.9-11.5-2.1-2.8-6.2-6.7-9.2-8.8-3-2.1-7.8-4.4-10.5-5.2-2.8-0.8-7-1.6-9.5-1.9-2.5-0.2-6.9 0-9.8 0.5z"/><path class="n" d="m134 376.4c-2.5 0.7-6.3 2.2-8.5 3.3-2.2 1.1-5.5 3.8-7.4 5.9-1.9 2.2-4.3 5.9-5.4 8.4-1.1 2.5-2 6.7-2 9.5 0 2.7 0.2 6.3 0.5 8 0.3 1.6 1.3 4.5 2.2 6.2 0.9 1.8 3.1 4.9 4.8 6.9 1.8 2 5.1 4.6 7.3 5.7 2.2 1.1 6.2 2.6 9 3.2 3.2 0.8 6.2 0.9 8.5 0.3 1.9-0.5 4.2-1.2 5-1.5 0.8-0.3 1.9-0.7 2.5-0.8 0.5-0.1 2.8-1.2 4.9-2.6 2.2-1.3 5-3.8 6.2-5.4 1.3-1.7 3.2-5 4.3-7.5 1.4-3.1 2.1-6.6 2.1-11 0-4.4-0.7-7.9-2.1-11-1.1-2.5-3-5.9-4.3-7.5-1.2-1.7-4-4.1-6.2-5.4-2.1-1.4-4.4-2.5-4.9-2.6-0.6-0.1-1.7-0.5-2.5-0.8-0.8-0.3-3.1-1-5-1.6-1.9-0.6-3.7-1.1-4-1-0.3 0-2.5 0.6-5 1.3zm554.5 0.4c-2.2 1.1-5.5 3.2-7.4 4.8-1.8 1.6-4.3 4.5-5.4 6.4-1.1 1.9-2.1 3.9-2.2 4.5-0.1 0.5-0.6 1.9-1.1 3-0.5 1.1-0.9 4.7-0.8 8 0 4 0.8 7.7 2.3 11 1.2 2.7 3.6 6.5 5.4 8.3 1.8 1.9 4.9 4.2 6.9 5.3 2.1 1 5.9 2.4 8.5 3 3.4 0.7 6.4 0.7 10.5 0 3.2-0.6 5.8-1.6 5.8-2.1 0-0.6 0.4-0.8 1-0.5 0.5 0.3 2.9-1 5.2-2.8 2.8-2.1 5.5-5.6 7.6-9.8 2.7-5.3 3.2-7.5 3.2-12.9 0-4.7-0.7-7.9-2.3-11.5-1.3-2.8-3.9-6.5-5.8-8.4-1.9-1.8-5.1-4.2-7.2-5.2-2-1.1-3.7-1.6-3.7-1.2 0.1 0.5-0.5 0.3-1.2-0.3-0.7-0.6-4.5-1.2-8.3-1.3-4.9-0.1-8.2 0.4-11 1.7z"/><path class="o" d="m321.5 289.4c-3.3 0.7-8.4 2.6-11.4 4.2-3 1.6-7.5 4.9-10.1 7.4-2.5 2.5-6.1 7.6-8 11.5-3.4 6.7-3.5 7.3-3.5 18.5 0 10.9 0.2 11.9 3.1 18 1.8 3.6 5.5 8.9 8.3 11.7 3 3.1 7.7 6.5 11.3 8.3 3.5 1.6 9 3.5 12.3 4.1 4.5 0.8 7.8 0.8 13-0.1 3.8-0.6 9.5-2.3 12.5-3.8 3-1.4 8-5.1 11.1-8.1 3-3.1 6.7-8.1 8.2-11.1 1.5-3 3.2-8.4 3.9-12 0.8-4.6 0.8-8.4 0.1-13-0.6-3.6-2.2-9-3.6-12-1.4-3-4.7-7.9-7.4-10.9-3.3-3.6-7-6.4-11.8-8.7-3.9-1.9-9.7-3.9-13-4.4-3.3-0.5-6.7-1-7.5-0.9-0.8 0-4.2 0.6-7.5 1.3zm-4 169.9c-2.2 0.8-6 2.4-8.5 3.7-2.5 1.3-6.6 4.5-9.3 7.2-2.6 2.6-6.1 7.6-7.7 11-1.7 3.5-3.4 9.2-3.9 12.8-0.6 4.1-0.6 8.7 0 12.5 0.6 3.3 2.1 8.2 3.4 11 1.3 2.7 4.1 7 6.2 9.4 2.1 2.5 6.5 6.2 9.8 8.3 4 2.6 8.5 4.4 13.5 5.4 6.3 1.4 8.7 1.5 14.5 0.5 3.8-0.6 9.2-2.2 12-3.6 2.7-1.3 7-4.1 9.5-6.3 2.5-2.1 5.9-6.1 7.6-8.8 1.8-2.7 4-7.4 4.9-10.4 1.3-4.1 1.7-7.8 1.3-14.5-0.3-7.5-0.9-10.1-3.6-15.8-1.8-3.7-5.3-8.9-8-11.5-2.6-2.7-7.7-6.3-11.7-8.2-6.3-3.1-8-3.5-16.5-3.7-5.9-0.2-11 0.2-13.5 1z"/><path class="p" d="m457.2 370.6c-2.8 0.8-6.9 2.2-9 3.3-2 1-6 3.6-8.7 5.8-2.8 2.1-6.8 6.6-8.9 9.9-2.2 3.2-4.7 8.1-5.7 10.9-0.9 2.7-2 7.5-2.4 10.5-0.3 3-0.2 8.4 0.4 12 0.6 3.6 2.6 9.8 4.6 13.7 2.2 4.6 5.5 9.3 8.8 12.5 3 2.9 8.3 6.7 11.8 8.4 3.5 1.8 8.8 3.7 11.6 4.3 2.9 0.6 7.4 1.1 10 1.1 2.7 0 7.4-0.7 10.5-1.5 3.2-0.8 8.2-2.7 11-4.2 2.9-1.4 7.5-4.7 10.1-7.2 2.7-2.5 6.3-6.9 8-9.6 1.7-2.8 3.9-7.6 4.9-10.8 1.1-3.3 1.8-8.9 1.8-13.5 0-4.9-0.7-10.1-1.9-14.2-1.1-3.6-3.3-8.5-4.9-11-1.6-2.5-4.9-6.4-7.3-8.8-2.4-2.4-6.7-5.6-9.4-7.2-2.8-1.6-7.7-3.6-11-4.4-3.3-0.9-8.9-1.6-12.5-1.5-3.6 0-8.9 0.7-11.8 1.5zm-45.2 83.5c-2.5 0.5-7.7 2.4-11.5 4.3-4.8 2.3-8.7 5.3-12.5 9.3-3 3.2-6.7 8.3-8.1 11.3-1.5 3-3.2 7.9-3.8 10.7-0.6 2.9-1.1 7.4-1.1 10 0 2.7 0.7 7.4 1.5 10.5 0.8 3.2 2.7 8.2 4.2 11 1.4 2.9 5.1 7.8 8.2 10.9 3.4 3.3 8.2 6.8 12.1 8.7 3.6 1.7 9.5 3.6 13.2 4.1 4.8 0.8 8.8 0.8 13.5 0.1 3.8-0.6 9.7-2.5 13.3-4.1 3.8-1.9 8.9-5.4 12.3-8.8 3.9-3.7 7.1-8.1 9.5-13 3.6-7.4 3.7-7.7 3.7-19.5 0-11.8-0.1-12.3-3.6-19.6-2.3-4.9-5.5-9.5-9.2-13.3-3.6-3.6-8-6.8-12-8.6-3.4-1.6-8.6-3.4-11.5-4-2.8-0.6-7.1-1.1-9.5-1-2.3 0.1-6.2 0.5-8.7 1z"/><path class="q" d="m269.5 364.3c-2.2 0.8-5.1 1.9-6.5 2.7-1.4 0.7-4.5 2.9-6.9 4.9-2.5 2-5.9 5.8-7.7 8.6-1.8 2.7-4.3 8.6-5.5 13l-2.3 8c3.5 13.3 5.9 19.2 7.7 21.9 1.8 2.7 5 6.5 7.2 8.3 2.2 1.9 6.5 4.6 9.5 6.1 4.9 2.4 6.6 2.7 16 2.7 9.8 0 11-0.2 17-3.2 3.6-1.7 8.5-5.1 10.8-7.5 2.4-2.3 5.7-7 7.3-10.3 1.6-3.3 3.3-8.5 3.9-11.5 0.5-3.4 0.5-7.9-0.1-11.8-0.5-3.4-2.3-8.9-3.9-12.2-1.7-3.3-4.7-7.7-6.8-9.8-2-2.1-6.8-5.3-10.7-7.2-6.2-3.1-7.9-3.5-16-3.7-5.3-0.2-10.6 0.3-13 1zm-29.5 74.8c-2.5 0.5-7 2.1-10 3.6-3 1.5-7.5 4.7-10 7.2-2.5 2.5-5.9 7.3-7.5 10.6-2.8 5.5-3 6.9-3 16.5 0 9.4 0.3 11.1 2.7 16.2 1.6 3.2 4.8 7.9 7.2 10.5 2.4 2.7 6.6 6 9.2 7.5 2.7 1.4 8 3.4 11.9 4.3 6 1.5 7.8 1.6 12.5 0.5 3-0.7 8.2-2.5 11.5-4.1 3.7-1.7 7.8-4.7 10.7-7.8 2.7-2.8 6-7.7 7.5-10.9 2.1-4.4 2.8-7.6 3.1-14.2 0.3-6.9 0-9.6-1.7-14.5-1.2-3.3-3.9-8.2-5.9-10.9-2-2.7-5.7-6.3-8.2-8-2.5-1.6-6.5-3.8-9-4.7-2.5-1-7.2-2-10.5-2.3-3.3-0.2-8-0.1-10.5 0.5z"/><path class="r" d="m359 369.3c-2.5 0.8-6.7 2.4-9.5 3.8-2.7 1.3-7.8 5.1-11.3 8.4-4.5 4.2-7.4 8.1-9.9 13-2.1 4.4-3.8 9.8-4.5 14.5-0.9 5.7-0.9 9.2 0 14.5 0.7 3.8 2.5 9.7 4.1 13 1.5 3.3 5.4 8.9 8.7 12.3 3.9 4.3 8.1 7.5 12.4 9.6 3.6 1.8 9.2 3.9 12.5 4.6 3.5 0.7 8.9 1 13 0.7 3.8-0.3 9.7-1.5 13-2.7 3.3-1.2 8.6-4 11.9-6.3 3.2-2.3 7.8-6.9 10.3-10.2 2.4-3.3 5.3-8.5 6.5-11.5 1.2-3.3 2.2-9.1 2.6-14.5 0.4-7.4 0.1-10.3-1.7-16.3-1.2-4.2-3.9-9.8-6.4-13.5-2.4-3.4-7-8.3-10.3-10.8-3.2-2.5-8.6-5.6-11.9-6.8-4.4-1.7-8.6-2.4-15.5-2.7-5.8-0.2-11.2 0.2-14 0.9z"/><path class="s" d="m410.7 290.6c-3.1 0.8-7.2 2.1-9 3-1.7 0.9-5.2 3.1-7.6 4.8-2.4 1.7-6.2 5.6-8.5 8.6-2.3 3.1-5.2 8.6-6.5 12.5-1.8 5.2-2.4 9.1-2.3 15 0 5.1 0.7 10 2 13.5 1 3 3.1 7.4 4.5 9.7 1.5 2.4 4.8 6.3 7.4 8.9 2.7 2.5 7.3 5.8 10.3 7.3 3 1.5 8.6 3.4 12.5 4.1 5.5 1 8.5 1.1 14 0.2 3.8-0.7 9.9-2.6 13.5-4.3 4.1-1.9 8.6-5.2 12-8.8 3-3.1 6.6-7.9 7.9-10.6 1.4-2.8 3-7.3 3.8-10 0.7-2.8 1.3-7.5 1.3-10.5 0-3-0.6-7.8-1.3-10.5-0.8-2.8-2.4-7.2-3.8-9.9-1.3-2.7-4.7-7.4-7.4-10.4-3.4-3.6-7.3-6.5-12-8.8-3.9-1.9-9.5-3.9-12.5-4.4-3-0.6-7.1-1-9-0.9-1.9 0-6.1 0.7-9.3 1.5z"/><path class="t" d="m422.5 70.8c-3.4 0.9-7.8 2.9-9.8 4.4-2 1.6-4.8 4.5-6.1 6.5-1.3 2.1-2.9 5.6-3.6 7.8-0.7 2.3-1.1 6.4-0.8 9.5 0.3 3 1.4 7.3 2.5 9.5 1.2 2.2 4 5.8 6.4 7.9 2.4 2.2 6 4.6 7.9 5.4 1.9 0.8 6.2 1.4 9.5 1.4 3.9 0.1 7.6-0.6 10.5-1.9 2.5-1.1 5.8-3.1 7.5-4.5 1.6-1.3 4.2-4.9 5.8-7.9 2.2-4.3 2.7-6.7 2.7-11.9 0-4.7-0.7-7.9-2.3-11.5-1.3-2.8-4.3-6.7-6.8-8.8-2.8-2.4-6.8-4.5-10.9-5.8-3.6-1.1-6.5-1.9-6.5-1.9 0 0.1-2.7 0.9-6 1.8zm119.5 50.5c-2.5 0.7-6.3 2.4-8.4 3.7-2.2 1.4-5 3.8-6.2 5.5-1.3 1.6-3 5-3.9 7.5-0.8 2.5-1.5 6.5-1.5 9 0 2.5 0.7 6.5 1.5 9 0.9 2.5 2.7 6 4.1 7.7 1.3 1.8 4.3 4.4 6.6 5.7 2.4 1.4 6.5 3 9.3 3.6 3.5 0.8 6.5 0.8 10 0.1 2.7-0.6 7.2-2.5 9.9-4.3 2.7-1.8 5.9-5.1 7.2-7.3 1.3-2.2 3-6.4 3.9-9.3 1.3-4.7 1.3-5.7 0-10.5-0.9-2.8-2.6-7-3.9-9.2-1.3-2.2-4.3-5.4-6.7-7-2.4-1.7-6.6-3.6-9.4-4.3-2.7-0.6-5.7-1.2-6.5-1.1-0.8 0-3.5 0.6-6 1.2zm180.5 308.8c-2.2 0.3-5.4 1.3-7 2.2-1.7 0.8-4.5 2.7-6.4 4.3-1.9 1.6-4.5 5.1-5.9 7.9-2 3.9-2.6 6.5-2.6 12 0 5.5 0.6 8.1 2.6 12 1.4 2.7 4 6.3 5.9 7.9 1.9 1.6 5.2 3.7 7.4 4.7 2.4 1.1 6.3 1.9 10 1.9 3.3 0 7.8-0.6 9.9-1.3 2.2-0.6 6-3 8.4-5.2 2.5-2.2 5.6-6.3 6.9-9 1.6-3.5 2.3-6.8 2.3-11 0-4.2-0.7-7.5-2.4-11-1.2-2.8-4.2-6.7-6.4-8.8-2.3-2-5.7-4.3-7.5-5-1.7-0.8-5-1.6-7.2-1.9-2.2-0.2-5.8-0.1-8 0.3zm-620.5 3.7c-2.5 0.9-6.5 3.6-9.1 6.1-3.5 3.5-5.1 6.2-6.8 11.3-1.8 5.9-1.9 7.4-1 11.5 0.7 2.7 2 6.4 2.9 8.3 1 1.9 3.3 5 5.1 6.9 1.9 1.9 5.2 4.2 7.4 5.2 2.2 1 6 2.1 8.5 2.5 3 0.4 6.5 0.1 10.5-1.1 4.7-1.3 7.1-2.8 11.2-6.8 4-4.1 5.5-6.5 6.8-11.2 1.2-4.1 1.6-7.5 1.1-11-0.4-2.8-1.9-7.2-3.4-9.9-1.5-2.8-4.6-6.3-7-8-2.4-1.7-5.8-3.6-7.5-4.3-1.8-0.6-5.7-1.1-8.7-1.1-3 0-7.5 0.7-10 1.6zm318 270.1c-1.4 0.4-3.6 1.4-5 2.1-1.4 0.7-4.2 2.9-6.3 4.9-2.1 2-4.5 4.8-5.3 6.3-0.8 1.6-1.9 4.9-2.5 7.5-0.7 3.4-0.7 6.4 0 10.3 0.6 3.1 2.4 7.3 4.1 9.7 1.6 2.4 4.9 5.7 7.2 7.3 2.4 1.7 6.5 3.6 9.3 4.2 3.7 0.8 6.4 0.8 10.5 0 3-0.6 7.4-2.4 9.8-3.9 2.3-1.6 5.6-4.8 7.2-7.3 1.7-2.5 3.7-6.9 4.5-9.8 1.3-4.6 1.3-5.8 0-10.5-0.8-2.8-2.9-7.4-4.7-10.1-2.3-3.4-5-5.9-8.8-7.9-4-2.3-7.1-3.1-11.5-3.4-3.3-0.1-7.1 0.1-8.5 0.6z"/></svg>